<svg width="73" height="71" viewBox="0 0 73 71" fill="none" xmlns="http://www.w3.org/2000/svg">
<rect width="73" height="71" rx="6" fill="white"/>
<path d="M12.1667 24.2371H60.8333M58.088 24.2371C58.088 14.3803 48.4233 6.38881 36.5 6.38881C24.5767 6.38881 14.912 14.3803 14.912 24.2371" stroke="black" stroke-opacity="0.7" stroke-width="0.5" stroke-linecap="round" stroke-linejoin="round"/>
<path d="M27.5091 10.724C25.2786 11.927 23.4352 13.5601 22.1375 15.4827C20.8397 17.4054 20.1265 19.56 20.0593 21.761M36.4999 6.38878V4.05714M37.6729 31.1701C44.1593 31.1051 44.9904 30.8812 56.9836 28.3639C57.7386 28.206 58.2989 28.5259 58.4636 28.889C58.632 29.2604 58.5634 29.9187 57.5389 30.1384C55.5174 30.5717 42.914 35.3794 40.0439 35.3794C37.1738 35.3794 28.8131 34.8636 25.6685 34.8636C22.5239 34.8636 18.8551 36.5143 18.8551 36.5143C16.3345 34.5747 14.7372 31.3558 14.3129 27.8687H45.4596C46.7449 27.8687 47.1567 29.3543 46.0586 29.767C44.4301 30.3788 41.6661 31.1701 37.6729 31.1701Z" stroke="black" stroke-opacity="0.7" stroke-width="0.5" stroke-linecap="round" stroke-linejoin="round"/>
<path d="M23.2528 40.2727H25.0767V46.358C25.0767 46.9205 24.9503 47.4091 24.6974 47.8239C24.4474 48.2386 24.0994 48.5582 23.6534 48.7827C23.2074 49.0071 22.6889 49.1193 22.098 49.1193C21.5724 49.1193 21.0952 49.027 20.6662 48.8423C20.2401 48.6548 19.902 48.3707 19.652 47.9901C19.402 47.6065 19.2784 47.125 19.2812 46.5455H21.1179C21.1236 46.7756 21.1705 46.973 21.2585 47.1378C21.3494 47.2997 21.473 47.4247 21.6293 47.5128C21.7884 47.598 21.9759 47.6406 22.1918 47.6406C22.419 47.6406 22.6108 47.5923 22.767 47.4957C22.9261 47.3963 23.0469 47.2514 23.1293 47.0611C23.2116 46.8707 23.2528 46.6364 23.2528 46.358V40.2727ZM34.6222 44.6364C34.6222 45.5881 34.4418 46.3977 34.081 47.0653C33.723 47.733 33.2344 48.2429 32.6151 48.5952C31.9986 48.9446 31.3054 49.1193 30.5355 49.1193C29.7599 49.1193 29.0639 48.9432 28.4474 48.5909C27.831 48.2386 27.3438 47.7287 26.9858 47.0611C26.6278 46.3935 26.4489 45.5852 26.4489 44.6364C26.4489 43.6847 26.6278 42.875 26.9858 42.2074C27.3438 41.5398 27.831 41.0312 28.4474 40.6818C29.0639 40.3295 29.7599 40.1534 30.5355 40.1534C31.3054 40.1534 31.9986 40.3295 32.6151 40.6818C33.2344 41.0312 33.723 41.5398 34.081 42.2074C34.4418 42.875 34.6222 43.6847 34.6222 44.6364ZM32.7514 44.6364C32.7514 44.0199 32.6591 43.5 32.4744 43.0767C32.2926 42.6534 32.0355 42.3324 31.7031 42.1136C31.3707 41.8949 30.9815 41.7855 30.5355 41.7855C30.0895 41.7855 29.7003 41.8949 29.3679 42.1136C29.0355 42.3324 28.777 42.6534 28.5923 43.0767C28.4105 43.5 28.3196 44.0199 28.3196 44.6364C28.3196 45.2528 28.4105 45.7727 28.5923 46.196C28.777 46.6193 29.0355 46.9403 29.3679 47.1591C29.7003 47.3778 30.0895 47.4872 30.5355 47.4872C30.9815 47.4872 31.3707 47.3778 31.7031 47.1591C32.0355 46.9403 32.2926 46.6193 32.4744 46.196C32.6591 45.7727 32.7514 45.2528 32.7514 44.6364ZM40.7234 42.7827C40.6893 42.4389 40.543 42.1719 40.2844 41.9815C40.0259 41.7912 39.6751 41.696 39.2319 41.696C38.9308 41.696 38.6765 41.7386 38.4691 41.8239C38.2617 41.9062 38.1026 42.0213 37.9918 42.169C37.8839 42.3168 37.8299 42.4844 37.8299 42.6719C37.8242 42.8281 37.8569 42.9645 37.9279 43.081C38.0018 43.1974 38.1026 43.2983 38.2305 43.3835C38.3583 43.4659 38.506 43.5384 38.6737 43.6009C38.8413 43.6605 39.0202 43.7116 39.2106 43.7543L39.9947 43.9418C40.3754 44.027 40.7248 44.1406 41.043 44.2827C41.3612 44.4247 41.6367 44.5994 41.8697 44.8068C42.1026 45.0142 42.283 45.2585 42.4109 45.5398C42.5415 45.821 42.6083 46.1435 42.6112 46.5071C42.6083 47.0412 42.4719 47.5043 42.2021 47.8963C41.935 48.2855 41.5487 48.5881 41.043 48.804C40.5401 49.017 39.9336 49.1236 39.2234 49.1236C38.5188 49.1236 37.9052 49.0156 37.3825 48.7997C36.8626 48.5838 36.4563 48.2642 36.1637 47.8409C35.8739 47.4148 35.7219 46.8878 35.7077 46.2599H37.4933C37.5131 46.5526 37.5969 46.7969 37.7447 46.9929C37.8952 47.1861 38.0955 47.3324 38.3455 47.4318C38.5984 47.5284 38.8839 47.5767 39.2021 47.5767C39.5146 47.5767 39.7859 47.5312 40.016 47.4403C40.2489 47.3494 40.4293 47.223 40.5572 47.0611C40.685 46.8991 40.7489 46.7131 40.7489 46.5028C40.7489 46.3068 40.6907 46.142 40.5742 46.0085C40.4606 45.875 40.293 45.7614 40.0714 45.6676C39.8526 45.5739 39.5842 45.4886 39.266 45.4119L38.3157 45.1733C37.5799 44.9943 36.9989 44.7145 36.5728 44.3338C36.1467 43.9531 35.935 43.4403 35.9379 42.7955C35.935 42.267 36.0756 41.8054 36.3597 41.4105C36.6467 41.0156 37.0401 40.7074 37.5401 40.4858C38.0401 40.2642 38.6083 40.1534 39.2447 40.1534C39.8924 40.1534 40.4577 40.2642 40.9407 40.4858C41.4265 40.7074 41.8043 41.0156 42.0742 41.4105C42.3441 41.8054 42.4833 42.2628 42.4918 42.7827H40.7234ZM43.3409 40.2727H45.4077L47.3977 44.0312H47.483L49.473 40.2727H51.5398L48.3565 45.9148V49H46.5241V45.9148L43.3409 40.2727Z" fill="black" fill-opacity="0.7"/>
<path d="M6.6321 59V51.7273H9.50142C10.0507 51.7273 10.5194 51.8255 10.9077 52.022C11.2983 52.2161 11.5954 52.492 11.799 52.8494C12.005 53.2045 12.108 53.6224 12.108 54.103C12.108 54.5859 12.0038 55.0014 11.7955 55.3494C11.5871 55.6951 11.2853 55.9602 10.8899 56.1449C10.4969 56.3295 10.0211 56.4219 9.46236 56.4219H7.54119V55.1861H9.21378C9.50734 55.1861 9.75118 55.1458 9.94531 55.0653C10.1394 54.9848 10.2839 54.8641 10.3786 54.7031C10.4756 54.5421 10.5241 54.3421 10.5241 54.103C10.5241 53.8615 10.4756 53.6579 10.3786 53.4922C10.2839 53.3265 10.1383 53.201 9.94176 53.1158C9.74763 53.0282 9.5026 52.9844 9.20668 52.9844H8.16974V59H6.6321ZM10.5597 55.6903L12.3672 59H10.6697L8.90128 55.6903H10.5597ZM15.5641 59.1065C15.003 59.1065 14.5201 58.9929 14.1152 58.7656C13.7128 58.536 13.4026 58.2116 13.1848 57.7926C12.967 57.3712 12.8581 56.8729 12.8581 56.2976C12.8581 55.7365 12.967 55.2441 13.1848 54.8203C13.4026 54.3965 13.7092 54.0663 14.1046 53.8295C14.5023 53.5928 14.9687 53.4744 15.5037 53.4744C15.8636 53.4744 16.1986 53.5324 16.5087 53.6484C16.8212 53.7621 17.0935 53.9337 17.3255 54.1634C17.5598 54.393 17.7421 54.6818 17.8723 55.0298C18.0025 55.3755 18.0676 55.7803 18.0676 56.2443V56.6598H13.4618V55.7223H16.6436C16.6436 55.5045 16.5963 55.3116 16.5016 55.1435C16.4069 54.9754 16.2755 54.844 16.1074 54.7493C15.9417 54.6522 15.7488 54.6037 15.5286 54.6037C15.2989 54.6037 15.0953 54.657 14.9178 54.7635C14.7426 54.8677 14.6053 55.0085 14.5059 55.1861C14.4064 55.3613 14.3555 55.5566 14.3532 55.772V56.6634C14.3532 56.9332 14.4029 57.1664 14.5023 57.3629C14.6041 57.5594 14.7473 57.7109 14.932 57.8175C15.1167 57.924 15.3356 57.9773 15.589 57.9773C15.757 57.9773 15.9109 57.9536 16.0506 57.9062C16.1903 57.8589 16.3098 57.7879 16.4093 57.6932C16.5087 57.5985 16.5845 57.4825 16.6365 57.3452L18.0357 57.4375C17.9647 57.7737 17.8191 58.0672 17.5989 58.3182C17.3811 58.5668 17.0994 58.7609 16.7537 58.9006C16.4105 59.0379 16.0139 59.1065 15.5641 59.1065ZM23.5932 55.1009L22.2083 55.1861C22.1846 55.0677 22.1337 54.9612 22.0556 54.8665C21.9775 54.7694 21.8745 54.6925 21.7466 54.6357C21.6212 54.5765 21.4708 54.5469 21.2956 54.5469C21.0613 54.5469 20.8636 54.5966 20.7026 54.696C20.5416 54.7931 20.4611 54.9233 20.4611 55.0866C20.4611 55.2169 20.5132 55.3269 20.6174 55.4169C20.7215 55.5069 20.9003 55.5791 21.1536 55.6335L22.1408 55.8324C22.6711 55.9413 23.0665 56.1165 23.3269 56.358C23.5873 56.5994 23.7175 56.9167 23.7175 57.3097C23.7175 57.6671 23.6122 57.9808 23.4015 58.2507C23.1931 58.5206 22.9067 58.7313 22.5421 58.8828C22.1799 59.032 21.762 59.1065 21.2885 59.1065C20.5665 59.1065 19.9912 58.9562 19.5627 58.6555C19.1365 58.3525 18.8868 57.9406 18.8134 57.4197L20.3013 57.3416C20.3463 57.5618 20.4552 57.7299 20.628 57.8459C20.8008 57.9595 21.0222 58.0163 21.2921 58.0163C21.5572 58.0163 21.7703 57.9654 21.9313 57.8636C22.0946 57.7595 22.1775 57.6257 22.1799 57.4624C22.1775 57.325 22.1195 57.2126 22.0059 57.125C21.8922 57.035 21.717 56.9664 21.4803 56.919L20.5357 56.7308C20.003 56.6243 19.6065 56.4396 19.3461 56.1768C19.088 55.9141 18.959 55.5791 18.959 55.1719C18.959 54.8215 19.0537 54.5196 19.2431 54.2663C19.4348 54.013 19.7035 53.8177 20.0492 53.6804C20.3972 53.5431 20.8044 53.4744 21.2708 53.4744C21.9597 53.4744 22.5018 53.62 22.8972 53.9112C23.2949 54.2024 23.5269 54.599 23.5932 55.1009ZM27.5714 53.5455V54.6818H24.2866V53.5455H27.5714ZM25.0323 52.2386H26.5451V57.3239C26.5451 57.4635 26.5664 57.5724 26.609 57.6506C26.6516 57.7263 26.7108 57.7796 26.7866 57.8104C26.8647 57.8411 26.9547 57.8565 27.0565 57.8565C27.1275 57.8565 27.1985 57.8506 27.2695 57.8388C27.3406 57.8246 27.395 57.8139 27.4329 57.8068L27.6708 58.9325C27.5951 58.9562 27.4885 58.9834 27.3512 59.0142C27.2139 59.0473 27.047 59.0675 26.8505 59.0746C26.4859 59.0888 26.1663 59.0402 25.8917 58.929C25.6194 58.8177 25.4076 58.6449 25.256 58.4105C25.1045 58.1761 25.0299 57.8802 25.0323 57.5227V52.2386ZM30.1122 59.103C29.7642 59.103 29.4541 59.0426 29.1818 58.9219C28.9096 58.7988 28.6941 58.6177 28.5355 58.3786C28.3793 58.1371 28.3011 57.8364 28.3011 57.4766C28.3011 57.1735 28.3568 56.919 28.468 56.7131C28.5793 56.5071 28.7308 56.3414 28.9226 56.2159C29.1143 56.0904 29.3321 55.9957 29.576 55.9318C29.8222 55.8679 30.0803 55.8229 30.3501 55.7969C30.6674 55.7637 30.9231 55.733 31.1172 55.7045C31.3113 55.6738 31.4522 55.6288 31.5398 55.5696C31.6274 55.5104 31.6712 55.4228 31.6712 55.3068V55.2855C31.6712 55.0606 31.6001 54.8866 31.4581 54.7635C31.3184 54.6404 31.1196 54.5788 30.8615 54.5788C30.5893 54.5788 30.3726 54.6392 30.2116 54.7599C30.0507 54.8783 29.9441 55.0275 29.892 55.2074L28.4929 55.0938C28.5639 54.7623 28.7036 54.4759 28.9119 54.2344C29.1203 53.9905 29.389 53.8035 29.718 53.6733C30.0495 53.5407 30.433 53.4744 30.8686 53.4744C31.1716 53.4744 31.4616 53.5099 31.7386 53.581C32.018 53.652 32.2654 53.7621 32.4808 53.9112C32.6986 54.0604 32.8703 54.2521 32.9957 54.4865C33.1212 54.7185 33.1839 54.9967 33.1839 55.321V59H31.7493V58.2436H31.7067C31.6191 58.4141 31.5019 58.5644 31.3551 58.6946C31.2083 58.8224 31.032 58.9231 30.826 58.9964C30.62 59.0675 30.3821 59.103 30.1122 59.103ZM30.5455 58.0589C30.768 58.0589 30.9645 58.0152 31.1349 57.9276C31.3054 57.8376 31.4392 57.7169 31.5362 57.5653C31.6333 57.4138 31.6818 57.2422 31.6818 57.0504V56.4716C31.6345 56.5024 31.5694 56.5308 31.4865 56.5568C31.406 56.5805 31.3149 56.603 31.2131 56.6243C31.1113 56.6432 31.0095 56.661 30.9077 56.6776C30.8059 56.6918 30.7135 56.7048 30.6307 56.7166C30.4531 56.7427 30.2981 56.7841 30.1655 56.8409C30.0329 56.8977 29.9299 56.9747 29.8565 57.0717C29.7831 57.1664 29.7464 57.2848 29.7464 57.4268C29.7464 57.6328 29.821 57.7902 29.9702 57.8991C30.1217 58.0057 30.3134 58.0589 30.5455 58.0589ZM37.8555 56.6776V53.5455H39.3683V59H37.9158V58.0092H37.859C37.7359 58.3288 37.5311 58.5857 37.2447 58.7798C36.9606 58.974 36.6138 59.071 36.2042 59.071C35.8396 59.071 35.5188 58.9882 35.2418 58.8224C34.9648 58.6567 34.7482 58.4212 34.592 58.1158C34.4381 57.8104 34.36 57.4446 34.3576 57.0185V53.5455H35.8704V56.7486C35.8728 57.0705 35.9592 57.325 36.1296 57.5121C36.3001 57.6991 36.5285 57.7926 36.815 57.7926C36.9973 57.7926 37.1677 57.7512 37.3263 57.6683C37.485 57.5831 37.6128 57.4576 37.7099 57.2919C37.8093 57.1262 37.8578 56.9214 37.8555 56.6776ZM40.5783 59V53.5455H42.0449V54.4972H42.1017C42.2012 54.1586 42.3681 53.9029 42.6025 53.7301C42.8368 53.5549 43.1067 53.4673 43.4121 53.4673C43.4879 53.4673 43.5695 53.4721 43.6571 53.4815C43.7447 53.491 43.8217 53.504 43.888 53.5206V54.8629C43.8169 54.8416 43.7187 54.8227 43.5932 54.8061C43.4677 54.7895 43.3529 54.7812 43.2488 54.7812C43.0262 54.7812 42.8274 54.8298 42.6522 54.9268C42.4793 55.0215 42.342 55.1541 42.2402 55.3246C42.1408 55.495 42.0911 55.6915 42.0911 55.9141V59H40.5783ZM46.0692 59.103C45.7212 59.103 45.4111 59.0426 45.1388 58.9219C44.8666 58.7988 44.6512 58.6177 44.4925 58.3786C44.3363 58.1371 44.2582 57.8364 44.2582 57.4766C44.2582 57.1735 44.3138 56.919 44.4251 56.7131C44.5363 56.5071 44.6879 56.3414 44.8796 56.2159C45.0714 56.0904 45.2892 55.9957 45.533 55.9318C45.7792 55.8679 46.0373 55.8229 46.3072 55.7969C46.6244 55.7637 46.8801 55.733 47.0742 55.7045C47.2683 55.6738 47.4092 55.6288 47.4968 55.5696C47.5844 55.5104 47.6282 55.4228 47.6282 55.3068V55.2855C47.6282 55.0606 47.5572 54.8866 47.4151 54.7635C47.2754 54.6404 47.0766 54.5788 46.8185 54.5788C46.5463 54.5788 46.3297 54.6392 46.1687 54.7599C46.0077 54.8783 45.9012 55.0275 45.8491 55.2074L44.4499 55.0938C44.521 54.7623 44.6606 54.4759 44.869 54.2344C45.0773 53.9905 45.346 53.8035 45.6751 53.6733C46.0065 53.5407 46.39 53.4744 46.8256 53.4744C47.1287 53.4744 47.4187 53.5099 47.6957 53.581C47.975 53.652 48.2224 53.7621 48.4379 53.9112C48.6557 54.0604 48.8273 54.2521 48.9528 54.4865C49.0782 54.7185 49.141 54.9967 49.141 55.321V59H47.7063V58.2436H47.6637C47.5761 58.4141 47.4589 58.5644 47.3121 58.6946C47.1654 58.8224 46.989 58.9231 46.783 58.9964C46.5771 59.0675 46.3391 59.103 46.0692 59.103ZM46.5025 58.0589C46.725 58.0589 46.9215 58.0152 47.092 57.9276C47.2624 57.8376 47.3962 57.7169 47.4933 57.5653C47.5903 57.4138 47.6388 57.2422 47.6388 57.0504V56.4716C47.5915 56.5024 47.5264 56.5308 47.4435 56.5568C47.363 56.5805 47.2719 56.603 47.1701 56.6243C47.0683 56.6432 46.9665 56.661 46.8647 56.6776C46.7629 56.6918 46.6706 56.7048 46.5877 56.7166C46.4102 56.7427 46.2551 56.7841 46.1225 56.8409C45.9899 56.8977 45.887 56.9747 45.8136 57.0717C45.7402 57.1664 45.7035 57.2848 45.7035 57.4268C45.7035 57.6328 45.7781 57.7902 45.9272 57.8991C46.0787 58.0057 46.2705 58.0589 46.5025 58.0589ZM51.8274 55.8466V59H50.3146V53.5455H51.7564V54.5078H51.8203C51.9411 54.1906 52.1435 53.9396 52.4276 53.755C52.7116 53.5679 53.0561 53.4744 53.4609 53.4744C53.8397 53.4744 54.17 53.5573 54.4517 53.723C54.7334 53.8887 54.9524 54.1255 55.1087 54.4332C55.2649 54.7386 55.343 55.1032 55.343 55.527V59H53.8303V55.7969C53.8326 55.4631 53.7474 55.2027 53.5746 55.0156C53.4018 54.8262 53.1638 54.7315 52.8608 54.7315C52.6572 54.7315 52.4773 54.7753 52.321 54.8629C52.1671 54.9505 52.0464 55.0784 51.9588 55.2464C51.8736 55.4122 51.8298 55.6122 51.8274 55.8466ZM59.4366 53.5455V54.6818H56.1518V53.5455H59.4366ZM56.8975 52.2386H58.4103V57.3239C58.4103 57.4635 58.4316 57.5724 58.4743 57.6506C58.5169 57.7263 58.5761 57.7796 58.6518 57.8104C58.7299 57.8411 58.8199 57.8565 58.9217 57.8565C58.9927 57.8565 59.0637 57.8506 59.1348 57.8388C59.2058 57.8246 59.2602 57.8139 59.2981 57.8068L59.536 58.9325C59.4603 58.9562 59.3538 58.9834 59.2164 59.0142C59.0791 59.0473 58.9122 59.0675 58.7157 59.0746C58.3511 59.0888 58.0315 59.0402 57.7569 58.929C57.4847 58.8177 57.2728 58.6449 57.1213 58.4105C56.9698 58.1761 56.8952 57.8802 56.8975 57.5227V52.2386ZM62.8493 59.1065C62.2882 59.1065 61.8052 58.9929 61.4004 58.7656C60.9979 58.536 60.6878 58.2116 60.47 57.7926C60.2522 57.3712 60.1433 56.8729 60.1433 56.2976C60.1433 55.7365 60.2522 55.2441 60.47 54.8203C60.6878 54.3965 60.9944 54.0663 61.3897 53.8295C61.7875 53.5928 62.2538 53.4744 62.7889 53.4744C63.1487 53.4744 63.4837 53.5324 63.7939 53.6484C64.1064 53.7621 64.3786 53.9337 64.6106 54.1634C64.845 54.393 65.0273 54.6818 65.1575 55.0298C65.2877 55.3755 65.3528 55.7803 65.3528 56.2443V56.6598H60.747V55.7223H63.9288C63.9288 55.5045 63.8815 55.3116 63.7868 55.1435C63.6921 54.9754 63.5607 54.844 63.3926 54.7493C63.2269 54.6522 63.0339 54.6037 62.8137 54.6037C62.5841 54.6037 62.3805 54.657 62.2029 54.7635C62.0278 54.8677 61.8904 55.0085 61.791 55.1861C61.6916 55.3613 61.6407 55.5566 61.6383 55.772V56.6634C61.6383 56.9332 61.688 57.1664 61.7875 57.3629C61.8893 57.5594 62.0325 57.7109 62.2172 57.8175C62.4018 57.924 62.6208 57.9773 62.8741 57.9773C63.0422 57.9773 63.1961 57.9536 63.3358 57.9062C63.4754 57.8589 63.595 57.7879 63.6944 57.6932C63.7939 57.5985 63.8696 57.4825 63.9217 57.3452L65.3208 57.4375C65.2498 57.7737 65.1042 58.0672 64.8841 58.3182C64.6663 58.5668 64.3845 58.7609 64.0389 58.9006C63.6956 59.0379 63.2991 59.1065 62.8493 59.1065Z" fill="black" fill-opacity="0.7"/>
</svg>
