<svg width="36" height="35" viewBox="0 0 36 35" fill="none" xmlns="http://www.w3.org/2000/svg">
<rect width="36" height="35" rx="6" fill="#1E1E1E"/>
<path d="M6 11.9479H30M28.6462 11.9479C28.6462 7.08889 23.88 3.14941 18 3.14941C12.12 3.14941 7.35385 7.08889 7.35385 11.9479" stroke="white" stroke-opacity="0.7" stroke-width="0.5" stroke-linecap="round" stroke-linejoin="round"/>
<path d="M13.5661 5.28646C12.4662 5.87949 11.5571 6.68454 10.9171 7.63233C10.2771 8.58012 9.92543 9.64224 9.89229 10.7273M18 3.1494V2M18.5784 15.3655C21.7772 15.3335 22.1871 15.2231 28.1015 13.9822C28.4738 13.9044 28.7501 14.062 28.8314 14.2411C28.9144 14.4242 28.8806 14.7486 28.3754 14.857C27.3784 15.0706 21.1631 17.4406 19.7477 17.4406C18.3323 17.4406 14.2092 17.1863 12.6584 17.1863C11.1077 17.1863 9.29844 18 9.29844 18C8.05536 17.0439 7.26767 15.4571 7.05844 13.7381H22.4184C23.0523 13.7381 23.2554 14.4704 22.7138 14.6739C21.9107 14.9755 20.5477 15.3655 18.5784 15.3655Z" stroke="white" stroke-opacity="0.7" stroke-width="0.5" stroke-linecap="round" stroke-linejoin="round"/>
<path d="M8.83523 20.1818H10.0511V24.2386C10.0511 24.6136 9.96686 24.9394 9.7983 25.2159C9.63163 25.4924 9.39962 25.7055 9.10227 25.8551C8.80492 26.0047 8.45928 26.0795 8.06534 26.0795C7.71496 26.0795 7.39678 26.018 7.1108 25.8949C6.8267 25.7699 6.60133 25.5805 6.43466 25.3267C6.26799 25.071 6.18561 24.75 6.1875 24.3636H7.41193C7.41572 24.517 7.44697 24.6487 7.50568 24.7585C7.56629 24.8665 7.64867 24.9498 7.75284 25.0085C7.8589 25.0653 7.9839 25.0938 8.12784 25.0938C8.27936 25.0938 8.4072 25.0616 8.51136 24.9972C8.61742 24.9309 8.69792 24.8343 8.75284 24.7074C8.80777 24.5805 8.83523 24.4242 8.83523 24.2386V20.1818ZM16.4148 23.0909C16.4148 23.7254 16.2945 24.2652 16.054 24.7102C15.8153 25.1553 15.4896 25.4953 15.0767 25.7301C14.6657 25.9631 14.2036 26.0795 13.6903 26.0795C13.1733 26.0795 12.7093 25.9621 12.2983 25.7273C11.8873 25.4924 11.5625 25.1525 11.3239 24.7074C11.0852 24.2623 10.9659 23.7235 10.9659 23.0909C10.9659 22.4564 11.0852 21.9167 11.3239 21.4716C11.5625 21.0265 11.8873 20.6875 12.2983 20.4545C12.7093 20.2197 13.1733 20.1023 13.6903 20.1023C14.2036 20.1023 14.6657 20.2197 15.0767 20.4545C15.4896 20.6875 15.8153 21.0265 16.054 21.4716C16.2945 21.9167 16.4148 22.4564 16.4148 23.0909ZM15.1676 23.0909C15.1676 22.6799 15.1061 22.3333 14.983 22.0511C14.8617 21.7689 14.6903 21.5549 14.4688 21.4091C14.2472 21.2633 13.9877 21.1903 13.6903 21.1903C13.393 21.1903 13.1335 21.2633 12.9119 21.4091C12.6903 21.5549 12.518 21.7689 12.3949 22.0511C12.2737 22.3333 12.2131 22.6799 12.2131 23.0909C12.2131 23.5019 12.2737 23.8485 12.3949 24.1307C12.518 24.4129 12.6903 24.6269 12.9119 24.7727C13.1335 24.9186 13.393 24.9915 13.6903 24.9915C13.9877 24.9915 14.2472 24.9186 14.4688 24.7727C14.6903 24.6269 14.8617 24.4129 14.983 24.1307C15.1061 23.8485 15.1676 23.5019 15.1676 23.0909ZM20.4822 21.8551C20.4595 21.6259 20.362 21.4479 20.1896 21.321C20.0173 21.1941 19.7834 21.1307 19.4879 21.1307C19.2872 21.1307 19.1177 21.1591 18.9794 21.2159C18.8411 21.2708 18.7351 21.3475 18.6612 21.446C18.5893 21.5445 18.5533 21.6562 18.5533 21.7812C18.5495 21.8854 18.5713 21.9763 18.6186 22.054C18.6679 22.1316 18.7351 22.1989 18.8203 22.2557C18.9055 22.3106 19.004 22.3589 19.1158 22.4006C19.2275 22.4403 19.3468 22.4744 19.4737 22.5028L19.9964 22.6278C20.2502 22.6847 20.4832 22.7604 20.6953 22.8551C20.9074 22.9498 21.0911 23.0663 21.2464 23.2045C21.4018 23.3428 21.522 23.5057 21.6072 23.6932C21.6944 23.8807 21.7389 24.0956 21.7408 24.3381C21.7389 24.6941 21.648 25.0028 21.468 25.2642C21.29 25.5237 21.0324 25.7254 20.6953 25.8693C20.3601 26.0114 19.9557 26.0824 19.4822 26.0824C19.0125 26.0824 18.6035 26.0104 18.255 25.8665C17.9084 25.7225 17.6375 25.5095 17.4425 25.2273C17.2493 24.9432 17.148 24.5919 17.1385 24.1733H18.3288C18.3421 24.3684 18.398 24.5312 18.4964 24.6619C18.5968 24.7907 18.7304 24.8883 18.897 24.9545C19.0656 25.0189 19.2559 25.0511 19.468 25.0511C19.6764 25.0511 19.8572 25.0208 20.0107 24.9602C20.166 24.8996 20.2862 24.8153 20.3714 24.7074C20.4567 24.5994 20.4993 24.4754 20.4993 24.3352C20.4993 24.2045 20.4605 24.0947 20.3828 24.0057C20.3071 23.9167 20.1953 23.8409 20.0476 23.7784C19.9018 23.7159 19.7228 23.6591 19.5107 23.608L18.8771 23.4489C18.3866 23.3295 17.9993 23.143 17.7152 22.8892C17.4311 22.6354 17.29 22.2936 17.2919 21.8636C17.29 21.5114 17.3838 21.2036 17.5732 20.9403C17.7644 20.6771 18.0268 20.4716 18.3601 20.3239C18.6934 20.1761 19.0722 20.1023 19.4964 20.1023C19.9283 20.1023 20.3052 20.1761 20.6271 20.3239C20.951 20.4716 21.2029 20.6771 21.3828 20.9403C21.5627 21.2036 21.6555 21.5085 21.6612 21.8551H20.4822ZM22.2273 20.1818H23.6051L24.9318 22.6875H24.9886L26.3153 20.1818H27.6932L25.571 23.9432V26H24.3494V23.9432L22.2273 20.1818Z" fill="white" fill-opacity="0.7"/>
<path d="M2.31605 31V27.3636H3.75071C4.02533 27.3636 4.25971 27.4128 4.45384 27.511C4.64915 27.6081 4.7977 27.746 4.8995 27.9247C5.00249 28.1023 5.05398 28.3112 5.05398 28.5515C5.05398 28.793 5.00189 29.0007 4.89773 29.1747C4.79356 29.3475 4.64264 29.4801 4.44496 29.5724C4.24846 29.6648 4.01054 29.7109 3.73118 29.7109H2.7706V29.093H3.60689C3.75367 29.093 3.87559 29.0729 3.97266 29.0327C4.06972 28.9924 4.14193 28.9321 4.18928 28.8516C4.23781 28.7711 4.26207 28.671 4.26207 28.5515C4.26207 28.4308 4.23781 28.329 4.18928 28.2461C4.14193 28.1632 4.06913 28.1005 3.97088 28.0579C3.87382 28.0141 3.7513 27.9922 3.60334 27.9922H3.08487V31H2.31605ZM4.27983 29.3452L5.18359 31H4.33487L3.45064 29.3452H4.27983ZM6.78205 31.0533C6.50151 31.0533 6.26003 30.9964 6.05762 30.8828C5.85639 30.768 5.70132 30.6058 5.59242 30.3963C5.48352 30.1856 5.42907 29.9364 5.42907 29.6488C5.42907 29.3683 5.48352 29.122 5.59242 28.9102C5.70132 28.6983 5.85461 28.5331 6.05229 28.4148C6.25115 28.2964 6.48435 28.2372 6.75186 28.2372C6.93179 28.2372 7.09928 28.2662 7.25435 28.3242C7.4106 28.381 7.54673 28.4669 7.66273 28.5817C7.77992 28.6965 7.87106 28.8409 7.93617 29.0149C8.00127 29.1877 8.03382 29.3902 8.03382 29.6222V29.8299H5.73091V29.3612H7.32182C7.32182 29.2522 7.29815 29.1558 7.2508 29.0717C7.20345 28.9877 7.13775 28.922 7.05371 28.8746C6.97085 28.8261 6.87438 28.8018 6.76429 28.8018C6.64947 28.8018 6.54767 28.8285 6.4589 28.8817C6.3713 28.9338 6.30265 29.0043 6.25293 29.093C6.20321 29.1806 6.17776 29.2783 6.17658 29.386V29.8317C6.17658 29.9666 6.20144 30.0832 6.25115 30.1815C6.30205 30.2797 6.37367 30.3555 6.466 30.4087C6.55833 30.462 6.66782 30.4886 6.79448 30.4886C6.87852 30.4886 6.95546 30.4768 7.0253 30.4531C7.09514 30.4295 7.15492 30.3939 7.20463 30.3466C7.25435 30.2992 7.29223 30.2412 7.31827 30.1726L8.01784 30.2188C7.98233 30.3868 7.90953 30.5336 7.79945 30.6591C7.69055 30.7834 7.54969 30.8804 7.37686 30.9503C7.20523 31.0189 7.00695 31.0533 6.78205 31.0533ZM10.7966 29.0504L10.1041 29.093C10.0923 29.0339 10.0669 28.9806 10.0278 28.9332C9.98873 28.8847 9.93723 28.8462 9.87331 28.8178C9.81058 28.7882 9.73541 28.7734 9.64782 28.7734C9.53063 28.7734 9.43179 28.7983 9.3513 28.848C9.2708 28.8965 9.23056 28.9616 9.23056 29.0433C9.23056 29.1084 9.2566 29.1635 9.30868 29.2085C9.36077 29.2534 9.45014 29.2895 9.57679 29.3168L10.0704 29.4162C10.3356 29.4706 10.5332 29.5582 10.6634 29.679C10.7936 29.7997 10.8588 29.9583 10.8588 30.1548C10.8588 30.3336 10.8061 30.4904 10.7007 30.6254C10.5966 30.7603 10.4533 30.8656 10.271 30.9414C10.0899 31.016 9.88101 31.0533 9.64426 31.0533C9.28323 31.0533 8.99559 30.9781 8.78134 30.8278C8.56827 30.6763 8.44339 30.4703 8.40669 30.2099L9.15066 30.1708C9.17315 30.2809 9.2276 30.3649 9.31401 30.4229C9.40042 30.4798 9.5111 30.5082 9.64604 30.5082C9.77862 30.5082 9.88515 30.4827 9.96564 30.4318C10.0473 30.3797 10.0887 30.3129 10.0899 30.2312C10.0887 30.1625 10.0597 30.1063 10.0029 30.0625C9.94611 30.0175 9.85852 29.9832 9.74015 29.9595L9.26784 29.8654C9.00151 29.8121 8.80324 29.7198 8.67303 29.5884C8.544 29.457 8.47949 29.2895 8.47949 29.0859C8.47949 28.9107 8.52684 28.7598 8.62154 28.6332C8.71742 28.5065 8.85177 28.4089 9.02459 28.3402C9.1986 28.2715 9.4022 28.2372 9.63539 28.2372C9.97985 28.2372 10.2509 28.31 10.4486 28.4556C10.6475 28.6012 10.7635 28.7995 10.7966 29.0504ZM12.7857 28.2727V28.8409H11.1433V28.2727H12.7857ZM11.5162 27.6193H12.2725V30.1619C12.2725 30.2318 12.2832 30.2862 12.3045 30.3253C12.3258 30.3632 12.3554 30.3898 12.3933 30.4052C12.4324 30.4206 12.4773 30.4283 12.5282 30.4283C12.5637 30.4283 12.5993 30.4253 12.6348 30.4194C12.6703 30.4123 12.6975 30.407 12.7164 30.4034L12.8354 30.9663C12.7975 30.9781 12.7443 30.9917 12.6756 31.0071C12.6069 31.0237 12.5235 31.0337 12.4252 31.0373C12.243 31.0444 12.0832 31.0201 11.9458 30.9645C11.8097 30.9089 11.7038 30.8224 11.628 30.7053C11.5523 30.5881 11.515 30.4401 11.5162 30.2614V27.6193ZM14.0561 31.0515C13.8821 31.0515 13.727 31.0213 13.5909 30.9609C13.4548 30.8994 13.3471 30.8088 13.2678 30.6893C13.1896 30.5685 13.1506 30.4182 13.1506 30.2383C13.1506 30.0868 13.1784 29.9595 13.234 29.8565C13.2897 29.7536 13.3654 29.6707 13.4613 29.608C13.5572 29.5452 13.6661 29.4979 13.788 29.4659C13.9111 29.4339 14.0401 29.4115 14.1751 29.3984C14.3337 29.3819 14.4615 29.3665 14.5586 29.3523C14.6557 29.3369 14.7261 29.3144 14.7699 29.2848C14.8137 29.2552 14.8356 29.2114 14.8356 29.1534V29.1428C14.8356 29.0303 14.8001 28.9433 14.729 28.8817C14.6592 28.8202 14.5598 28.7894 14.4308 28.7894C14.2946 28.7894 14.1863 28.8196 14.1058 28.88C14.0253 28.9392 13.9721 29.0137 13.946 29.1037L13.2464 29.0469C13.282 28.8812 13.3518 28.7379 13.456 28.6172C13.5601 28.4953 13.6945 28.4018 13.859 28.3366C14.0247 28.2704 14.2165 28.2372 14.4343 28.2372C14.5858 28.2372 14.7308 28.255 14.8693 28.2905C15.009 28.326 15.1327 28.381 15.2404 28.4556C15.3493 28.5302 15.4351 28.6261 15.4979 28.7433C15.5606 28.8593 15.592 28.9983 15.592 29.1605V31H14.8746V30.6218H14.8533C14.8095 30.707 14.7509 30.7822 14.6776 30.8473C14.6042 30.9112 14.516 30.9615 14.413 30.9982C14.31 31.0337 14.1911 31.0515 14.0561 31.0515ZM14.2727 30.5295C14.384 30.5295 14.4822 30.5076 14.5675 30.4638C14.6527 30.4188 14.7196 30.3584 14.7681 30.2827C14.8166 30.2069 14.8409 30.1211 14.8409 30.0252V29.7358C14.8172 29.7512 14.7847 29.7654 14.7433 29.7784C14.703 29.7902 14.6574 29.8015 14.6065 29.8121C14.5556 29.8216 14.5047 29.8305 14.4538 29.8388C14.4029 29.8459 14.3568 29.8524 14.3153 29.8583C14.2266 29.8713 14.149 29.892 14.0827 29.9205C14.0165 29.9489 13.965 29.9873 13.9283 30.0359C13.8916 30.0832 13.8732 30.1424 13.8732 30.2134C13.8732 30.3164 13.9105 30.3951 13.9851 30.4496C14.0608 30.5028 14.1567 30.5295 14.2727 30.5295ZM17.9277 29.8388V28.2727H18.6841V31H17.9579V30.5046H17.9295C17.868 30.6644 17.7656 30.7929 17.6223 30.8899C17.4803 30.987 17.3069 31.0355 17.1021 31.0355C16.9198 31.0355 16.7594 30.9941 16.6209 30.9112C16.4824 30.8284 16.3741 30.7106 16.296 30.5579C16.219 30.4052 16.18 30.2223 16.1788 30.0092V28.2727H16.9352V29.8743C16.9364 30.0353 16.9796 30.1625 17.0648 30.256C17.15 30.3496 17.2643 30.3963 17.4075 30.3963C17.4986 30.3963 17.5839 30.3756 17.6632 30.3342C17.7425 30.2915 17.8064 30.2288 17.8549 30.146C17.9047 30.0631 17.9289 29.9607 17.9277 29.8388ZM19.2892 31V28.2727H20.0225V28.7486H20.0509C20.1006 28.5793 20.184 28.4515 20.3012 28.3651C20.4184 28.2775 20.5534 28.2337 20.7061 28.2337C20.7439 28.2337 20.7848 28.236 20.8286 28.2408C20.8724 28.2455 20.9108 28.252 20.944 28.2603V28.9315C20.9085 28.9208 20.8593 28.9113 20.7966 28.9031C20.7339 28.8948 20.6765 28.8906 20.6244 28.8906C20.5131 28.8906 20.4137 28.9149 20.3261 28.9634C20.2397 29.0108 20.171 29.0771 20.1201 29.1623C20.0704 29.2475 20.0455 29.3458 20.0455 29.457V31H19.2892ZM22.0346 31.0515C21.8606 31.0515 21.7056 31.0213 21.5694 30.9609C21.4333 30.8994 21.3256 30.8088 21.2463 30.6893C21.1681 30.5685 21.1291 30.4182 21.1291 30.2383C21.1291 30.0868 21.1569 29.9595 21.2125 29.8565C21.2682 29.7536 21.3439 29.6707 21.4398 29.608C21.5357 29.5452 21.6446 29.4979 21.7665 29.4659C21.8896 29.4339 22.0186 29.4115 22.1536 29.3984C22.3122 29.3819 22.44 29.3665 22.5371 29.3523C22.6342 29.3369 22.7046 29.3144 22.7484 29.2848C22.7922 29.2552 22.8141 29.2114 22.8141 29.1534V29.1428C22.8141 29.0303 22.7786 28.9433 22.7076 28.8817C22.6377 28.8202 22.5383 28.7894 22.4093 28.7894C22.2731 28.7894 22.1648 28.8196 22.0843 28.88C22.0038 28.9392 21.9506 29.0137 21.9245 29.1037L21.225 29.0469C21.2605 28.8812 21.3303 28.7379 21.4345 28.6172C21.5386 28.4953 21.673 28.4018 21.8375 28.3366C22.0033 28.2704 22.195 28.2372 22.4128 28.2372C22.5643 28.2372 22.7093 28.255 22.8478 28.2905C22.9875 28.326 23.1112 28.381 23.2189 28.4556C23.3278 28.5302 23.4136 28.6261 23.4764 28.7433C23.5391 28.8593 23.5705 28.9983 23.5705 29.1605V31H22.8532V30.6218H22.8319C22.7881 30.707 22.7295 30.7822 22.6561 30.8473C22.5827 30.9112 22.4945 30.9615 22.3915 30.9982C22.2885 31.0337 22.1696 31.0515 22.0346 31.0515ZM22.2512 30.5295C22.3625 30.5295 22.4608 30.5076 22.546 30.4638C22.6312 30.4188 22.6981 30.3584 22.7466 30.2827C22.7952 30.2069 22.8194 30.1211 22.8194 30.0252V29.7358C22.7958 29.7512 22.7632 29.7654 22.7218 29.7784C22.6815 29.7902 22.6359 29.8015 22.585 29.8121C22.5342 29.8216 22.4833 29.8305 22.4324 29.8388C22.3815 29.8459 22.3353 29.8524 22.2939 29.8583C22.2051 29.8713 22.1275 29.892 22.0613 29.9205C21.995 29.9489 21.9435 29.9873 21.9068 30.0359C21.8701 30.0832 21.8517 30.1424 21.8517 30.2134C21.8517 30.3164 21.889 30.3951 21.9636 30.4496C22.0394 30.5028 22.1352 30.5295 22.2512 30.5295ZM24.9137 29.4233V31H24.1573V28.2727H24.8782V28.7539H24.9102C24.9705 28.5953 25.0717 28.4698 25.2138 28.3775C25.3558 28.284 25.5281 28.2372 25.7305 28.2372C25.9199 28.2372 26.085 28.2786 26.2259 28.3615C26.3667 28.4444 26.4762 28.5627 26.5543 28.7166C26.6325 28.8693 26.6715 29.0516 26.6715 29.2635V31H25.9151V29.3984C25.9163 29.2315 25.8737 29.1013 25.7873 29.0078C25.7009 28.9131 25.5819 28.8658 25.4304 28.8658C25.3286 28.8658 25.2386 28.8877 25.1605 28.9315C25.0836 28.9753 25.0232 29.0392 24.9794 29.1232C24.9368 29.2061 24.9149 29.3061 24.9137 29.4233ZM28.7183 28.2727V28.8409H27.0759V28.2727H28.7183ZM27.4488 27.6193H28.2052V30.1619C28.2052 30.2318 28.2158 30.2862 28.2371 30.3253C28.2584 30.3632 28.288 30.3898 28.3259 30.4052C28.365 30.4206 28.4099 30.4283 28.4608 30.4283C28.4964 30.4283 28.5319 30.4253 28.5674 30.4194C28.6029 30.4123 28.6301 30.407 28.6491 30.4034L28.768 30.9663C28.7301 30.9781 28.6769 30.9917 28.6082 31.0071C28.5396 31.0237 28.4561 31.0337 28.3579 31.0373C28.1756 31.0444 28.0158 31.0201 27.8785 30.9645C27.7423 30.9089 27.6364 30.8224 27.5606 30.7053C27.4849 30.5881 27.4476 30.4401 27.4488 30.2614V27.6193ZM30.4246 31.0533C30.1441 31.0533 29.9026 30.9964 29.7002 30.8828C29.499 30.768 29.3439 30.6058 29.235 30.3963C29.1261 30.1856 29.0716 29.9364 29.0716 29.6488C29.0716 29.3683 29.1261 29.122 29.235 28.9102C29.3439 28.6983 29.4972 28.5331 29.6949 28.4148C29.8937 28.2964 30.1269 28.2372 30.3944 28.2372C30.5744 28.2372 30.7419 28.2662 30.8969 28.3242C31.0532 28.381 31.1893 28.4669 31.3053 28.5817C31.4225 28.6965 31.5136 28.8409 31.5787 29.0149C31.6439 29.1877 31.6764 29.3902 31.6764 29.6222V29.8299H29.3735V29.3612H30.9644C30.9644 29.2522 30.9407 29.1558 30.8934 29.0717C30.846 28.9877 30.7803 28.922 30.6963 28.8746C30.6134 28.8261 30.517 28.8018 30.4069 28.8018C30.2921 28.8018 30.1903 28.8285 30.1015 28.8817C30.0139 28.9338 29.9452 29.0043 29.8955 29.093C29.8458 29.1806 29.8203 29.2783 29.8192 29.386V29.8317C29.8192 29.9666 29.844 30.0832 29.8937 30.1815C29.9446 30.2797 30.0162 30.3555 30.1086 30.4087C30.2009 30.462 30.3104 30.4886 30.4371 30.4886C30.5211 30.4886 30.598 30.4768 30.6679 30.4531C30.7377 30.4295 30.7975 30.3939 30.8472 30.3466C30.8969 30.2992 30.9348 30.2412 30.9608 30.1726L31.6604 30.2188C31.6249 30.3868 31.5521 30.5336 31.442 30.6591C31.3331 30.7834 31.1923 30.8804 31.0194 30.9503C30.8478 31.0189 30.6495 31.0533 30.4246 31.0533Z" fill="white" fill-opacity="0.7"/>
</svg>
