<svg width="36" height="35" viewBox="0 0 36 35" fill="none" xmlns="http://www.w3.org/2000/svg">
<rect width="36" height="35" rx="6" fill="#1E1E1E"/>
<path d="M3.31605 23V19.3636H4.75071C5.02533 19.3636 5.25971 19.4128 5.45384 19.511C5.64915 19.6081 5.7977 19.746 5.8995 19.9247C6.00249 20.1023 6.05398 20.3112 6.05398 20.5515C6.05398 20.793 6.00189 21.0007 5.89773 21.1747C5.79356 21.3475 5.64264 21.4801 5.44496 21.5724C5.24846 21.6648 5.01054 21.7109 4.73118 21.7109H3.7706V21.093H4.60689C4.75367 21.093 4.87559 21.0729 4.97266 21.0327C5.06972 20.9924 5.14193 20.9321 5.18928 20.8516C5.23781 20.7711 5.26207 20.671 5.26207 20.5515C5.26207 20.4308 5.23781 20.329 5.18928 20.2461C5.14193 20.1632 5.06913 20.1005 4.97088 20.0579C4.87382 20.0141 4.7513 19.9922 4.60334 19.9922H4.08487V23H3.31605ZM5.27983 21.3452L6.18359 23H5.33487L4.45064 21.3452H5.27983ZM7.78205 23.0533C7.50151 23.0533 7.26003 22.9964 7.05762 22.8828C6.85639 22.768 6.70132 22.6058 6.59242 22.3963C6.48352 22.1856 6.42907 21.9364 6.42907 21.6488C6.42907 21.3683 6.48352 21.122 6.59242 20.9102C6.70132 20.6983 6.85461 20.5331 7.05229 20.4148C7.25115 20.2964 7.48435 20.2372 7.75186 20.2372C7.93179 20.2372 8.09928 20.2662 8.25435 20.3242C8.4106 20.381 8.54673 20.4669 8.66273 20.5817C8.77992 20.6965 8.87106 20.8409 8.93617 21.0149C9.00127 21.1877 9.03382 21.3902 9.03382 21.6222V21.8299H6.73091V21.3612H8.32182C8.32182 21.2522 8.29815 21.1558 8.2508 21.0717C8.20345 20.9877 8.13775 20.922 8.05371 20.8746C7.97085 20.8261 7.87438 20.8018 7.76429 20.8018C7.64947 20.8018 7.54767 20.8285 7.4589 20.8817C7.3713 20.9338 7.30265 21.0043 7.25293 21.093C7.20321 21.1806 7.17776 21.2783 7.17658 21.386V21.8317C7.17658 21.9666 7.20144 22.0832 7.25115 22.1815C7.30205 22.2797 7.37367 22.3555 7.466 22.4087C7.55833 22.462 7.66782 22.4886 7.79448 22.4886C7.87852 22.4886 7.95546 22.4768 8.0253 22.4531C8.09514 22.4295 8.15492 22.3939 8.20463 22.3466C8.25435 22.2992 8.29223 22.2412 8.31827 22.1726L9.01784 22.2188C8.98233 22.3868 8.90953 22.5336 8.79945 22.6591C8.69055 22.7834 8.54969 22.8804 8.37686 22.9503C8.20523 23.0189 8.00695 23.0533 7.78205 23.0533ZM11.7966 21.0504L11.1041 21.093C11.0923 21.0339 11.0669 20.9806 11.0278 20.9332C10.9887 20.8847 10.9372 20.8462 10.8733 20.8178C10.8106 20.7882 10.7354 20.7734 10.6478 20.7734C10.5306 20.7734 10.4318 20.7983 10.3513 20.848C10.2708 20.8965 10.2306 20.9616 10.2306 21.0433C10.2306 21.1084 10.2566 21.1635 10.3087 21.2085C10.3608 21.2534 10.4501 21.2895 10.5768 21.3168L11.0704 21.4162C11.3356 21.4706 11.5332 21.5582 11.6634 21.679C11.7936 21.7997 11.8588 21.9583 11.8588 22.1548C11.8588 22.3336 11.8061 22.4904 11.7007 22.6254C11.5966 22.7603 11.4533 22.8656 11.271 22.9414C11.0899 23.016 10.881 23.0533 10.6443 23.0533C10.2832 23.0533 9.99559 22.9781 9.78134 22.8278C9.56827 22.6763 9.44339 22.4703 9.40669 22.2099L10.1507 22.1708C10.1731 22.2809 10.2276 22.3649 10.314 22.4229C10.4004 22.4798 10.5111 22.5082 10.646 22.5082C10.7786 22.5082 10.8852 22.4827 10.9656 22.4318C11.0473 22.3797 11.0887 22.3129 11.0899 22.2312C11.0887 22.1625 11.0597 22.1063 11.0029 22.0625C10.9461 22.0175 10.8585 21.9832 10.7401 21.9595L10.2678 21.8654C10.0015 21.8121 9.80324 21.7198 9.67303 21.5884C9.544 21.457 9.47949 21.2895 9.47949 21.0859C9.47949 20.9107 9.52684 20.7598 9.62154 20.6332C9.71742 20.5065 9.85177 20.4089 10.0246 20.3402C10.1986 20.2715 10.4022 20.2372 10.6354 20.2372C10.9798 20.2372 11.2509 20.31 11.4486 20.4556C11.6475 20.6012 11.7635 20.7995 11.7966 21.0504ZM13.7857 20.2727V20.8409H12.1433V20.2727H13.7857ZM12.5162 19.6193H13.2725V22.1619C13.2725 22.2318 13.2832 22.2862 13.3045 22.3253C13.3258 22.3632 13.3554 22.3898 13.3933 22.4052C13.4324 22.4206 13.4773 22.4283 13.5282 22.4283C13.5637 22.4283 13.5993 22.4253 13.6348 22.4194C13.6703 22.4123 13.6975 22.407 13.7164 22.4034L13.8354 22.9663C13.7975 22.9781 13.7443 22.9917 13.6756 23.0071C13.6069 23.0237 13.5235 23.0337 13.4252 23.0373C13.243 23.0444 13.0832 23.0201 12.9458 22.9645C12.8097 22.9089 12.7038 22.8224 12.628 22.7053C12.5523 22.5881 12.515 22.4401 12.5162 22.2614V19.6193ZM15.0561 23.0515C14.8821 23.0515 14.727 23.0213 14.5909 22.9609C14.4548 22.8994 14.3471 22.8088 14.2678 22.6893C14.1896 22.5685 14.1506 22.4182 14.1506 22.2383C14.1506 22.0868 14.1784 21.9595 14.234 21.8565C14.2897 21.7536 14.3654 21.6707 14.4613 21.608C14.5572 21.5452 14.6661 21.4979 14.788 21.4659C14.9111 21.4339 15.0401 21.4115 15.1751 21.3984C15.3337 21.3819 15.4615 21.3665 15.5586 21.3523C15.6557 21.3369 15.7261 21.3144 15.7699 21.2848C15.8137 21.2552 15.8356 21.2114 15.8356 21.1534V21.1428C15.8356 21.0303 15.8001 20.9433 15.729 20.8817C15.6592 20.8202 15.5598 20.7894 15.4308 20.7894C15.2946 20.7894 15.1863 20.8196 15.1058 20.88C15.0253 20.9392 14.9721 21.0137 14.946 21.1037L14.2464 21.0469C14.282 20.8812 14.3518 20.7379 14.456 20.6172C14.5601 20.4953 14.6945 20.4018 14.859 20.3366C15.0247 20.2704 15.2165 20.2372 15.4343 20.2372C15.5858 20.2372 15.7308 20.255 15.8693 20.2905C16.009 20.326 16.1327 20.381 16.2404 20.4556C16.3493 20.5302 16.4351 20.6261 16.4979 20.7433C16.5606 20.8593 16.592 20.9983 16.592 21.1605V23H15.8746V22.6218H15.8533C15.8095 22.707 15.7509 22.7822 15.6776 22.8473C15.6042 22.9112 15.516 22.9615 15.413 22.9982C15.31 23.0337 15.1911 23.0515 15.0561 23.0515ZM15.2727 22.5295C15.384 22.5295 15.4822 22.5076 15.5675 22.4638C15.6527 22.4188 15.7196 22.3584 15.7681 22.2827C15.8166 22.2069 15.8409 22.1211 15.8409 22.0252V21.7358C15.8172 21.7512 15.7847 21.7654 15.7433 21.7784C15.703 21.7902 15.6574 21.8015 15.6065 21.8121C15.5556 21.8216 15.5047 21.8305 15.4538 21.8388C15.4029 21.8459 15.3568 21.8524 15.3153 21.8583C15.2266 21.8713 15.149 21.892 15.0827 21.9205C15.0165 21.9489 14.965 21.9873 14.9283 22.0359C14.8916 22.0832 14.8732 22.1424 14.8732 22.2134C14.8732 22.3164 14.9105 22.3951 14.9851 22.4496C15.0608 22.5028 15.1567 22.5295 15.2727 22.5295ZM18.9277 21.8388V20.2727H19.6841V23H18.9579V22.5046H18.9295C18.868 22.6644 18.7656 22.7929 18.6223 22.8899C18.4803 22.987 18.3069 23.0355 18.1021 23.0355C17.9198 23.0355 17.7594 22.9941 17.6209 22.9112C17.4824 22.8284 17.3741 22.7106 17.296 22.5579C17.219 22.4052 17.18 22.2223 17.1788 22.0092V20.2727H17.9352V21.8743C17.9364 22.0353 17.9796 22.1625 18.0648 22.256C18.15 22.3496 18.2643 22.3963 18.4075 22.3963C18.4986 22.3963 18.5839 22.3756 18.6632 22.3342C18.7425 22.2915 18.8064 22.2288 18.8549 22.146C18.9047 22.0631 18.9289 21.9607 18.9277 21.8388ZM20.2892 23V20.2727H21.0225V20.7486H21.0509C21.1006 20.5793 21.184 20.4515 21.3012 20.3651C21.4184 20.2775 21.5534 20.2337 21.7061 20.2337C21.7439 20.2337 21.7848 20.236 21.8286 20.2408C21.8724 20.2455 21.9108 20.252 21.944 20.2603V20.9315C21.9085 20.9208 21.8593 20.9113 21.7966 20.9031C21.7339 20.8948 21.6765 20.8906 21.6244 20.8906C21.5131 20.8906 21.4137 20.9149 21.3261 20.9634C21.2397 21.0108 21.171 21.0771 21.1201 21.1623C21.0704 21.2475 21.0455 21.3458 21.0455 21.457V23H20.2892ZM23.0346 23.0515C22.8606 23.0515 22.7056 23.0213 22.5694 22.9609C22.4333 22.8994 22.3256 22.8088 22.2463 22.6893C22.1681 22.5685 22.1291 22.4182 22.1291 22.2383C22.1291 22.0868 22.1569 21.9595 22.2125 21.8565C22.2682 21.7536 22.3439 21.6707 22.4398 21.608C22.5357 21.5452 22.6446 21.4979 22.7665 21.4659C22.8896 21.4339 23.0186 21.4115 23.1536 21.3984C23.3122 21.3819 23.44 21.3665 23.5371 21.3523C23.6342 21.3369 23.7046 21.3144 23.7484 21.2848C23.7922 21.2552 23.8141 21.2114 23.8141 21.1534V21.1428C23.8141 21.0303 23.7786 20.9433 23.7076 20.8817C23.6377 20.8202 23.5383 20.7894 23.4093 20.7894C23.2731 20.7894 23.1648 20.8196 23.0843 20.88C23.0038 20.9392 22.9506 21.0137 22.9245 21.1037L22.225 21.0469C22.2605 20.8812 22.3303 20.7379 22.4345 20.6172C22.5386 20.4953 22.673 20.4018 22.8375 20.3366C23.0033 20.2704 23.195 20.2372 23.4128 20.2372C23.5643 20.2372 23.7093 20.255 23.8478 20.2905C23.9875 20.326 24.1112 20.381 24.2189 20.4556C24.3278 20.5302 24.4136 20.6261 24.4764 20.7433C24.5391 20.8593 24.5705 20.9983 24.5705 21.1605V23H23.8532V22.6218H23.8319C23.7881 22.707 23.7295 22.7822 23.6561 22.8473C23.5827 22.9112 23.4945 22.9615 23.3915 22.9982C23.2885 23.0337 23.1696 23.0515 23.0346 23.0515ZM23.2512 22.5295C23.3625 22.5295 23.4608 22.5076 23.546 22.4638C23.6312 22.4188 23.6981 22.3584 23.7466 22.2827C23.7952 22.2069 23.8194 22.1211 23.8194 22.0252V21.7358C23.7958 21.7512 23.7632 21.7654 23.7218 21.7784C23.6815 21.7902 23.6359 21.8015 23.585 21.8121C23.5342 21.8216 23.4833 21.8305 23.4324 21.8388C23.3815 21.8459 23.3353 21.8524 23.2939 21.8583C23.2051 21.8713 23.1275 21.892 23.0613 21.9205C22.995 21.9489 22.9435 21.9873 22.9068 22.0359C22.8701 22.0832 22.8517 22.1424 22.8517 22.2134C22.8517 22.3164 22.889 22.3951 22.9636 22.4496C23.0394 22.5028 23.1352 22.5295 23.2512 22.5295ZM25.9137 21.4233V23H25.1573V20.2727H25.8782V20.7539H25.9102C25.9705 20.5953 26.0717 20.4698 26.2138 20.3775C26.3558 20.284 26.5281 20.2372 26.7305 20.2372C26.9199 20.2372 27.085 20.2786 27.2259 20.3615C27.3667 20.4444 27.4762 20.5627 27.5543 20.7166C27.6325 20.8693 27.6715 21.0516 27.6715 21.2635V23H26.9151V21.3984C26.9163 21.2315 26.8737 21.1013 26.7873 21.0078C26.7009 20.9131 26.5819 20.8658 26.4304 20.8658C26.3286 20.8658 26.2386 20.8877 26.1605 20.9315C26.0836 20.9753 26.0232 21.0392 25.9794 21.1232C25.9368 21.2061 25.9149 21.3061 25.9137 21.4233ZM29.7183 20.2727V20.8409H28.0759V20.2727H29.7183ZM28.4488 19.6193H29.2052V22.1619C29.2052 22.2318 29.2158 22.2862 29.2371 22.3253C29.2584 22.3632 29.288 22.3898 29.3259 22.4052C29.365 22.4206 29.4099 22.4283 29.4608 22.4283C29.4964 22.4283 29.5319 22.4253 29.5674 22.4194C29.6029 22.4123 29.6301 22.407 29.6491 22.4034L29.768 22.9663C29.7301 22.9781 29.6769 22.9917 29.6082 23.0071C29.5396 23.0237 29.4561 23.0337 29.3579 23.0373C29.1756 23.0444 29.0158 23.0201 28.8785 22.9645C28.7423 22.9089 28.6364 22.8224 28.5606 22.7053C28.4849 22.5881 28.4476 22.4401 28.4488 22.2614V19.6193ZM31.4246 23.0533C31.1441 23.0533 30.9026 22.9964 30.7002 22.8828C30.499 22.768 30.3439 22.6058 30.235 22.3963C30.1261 22.1856 30.0716 21.9364 30.0716 21.6488C30.0716 21.3683 30.1261 21.122 30.235 20.9102C30.3439 20.6983 30.4972 20.5331 30.6949 20.4148C30.8937 20.2964 31.1269 20.2372 31.3944 20.2372C31.5744 20.2372 31.7419 20.2662 31.8969 20.3242C32.0532 20.381 32.1893 20.4669 32.3053 20.5817C32.4225 20.6965 32.5136 20.8409 32.5787 21.0149C32.6439 21.1877 32.6764 21.3902 32.6764 21.6222V21.8299H30.3735V21.3612H31.9644C31.9644 21.2522 31.9407 21.1558 31.8934 21.0717C31.846 20.9877 31.7803 20.922 31.6963 20.8746C31.6134 20.8261 31.517 20.8018 31.4069 20.8018C31.2921 20.8018 31.1903 20.8285 31.1015 20.8817C31.0139 20.9338 30.9452 21.0043 30.8955 21.093C30.8458 21.1806 30.8203 21.2783 30.8192 21.386V21.8317C30.8192 21.9666 30.844 22.0832 30.8937 22.1815C30.9446 22.2797 31.0162 22.3555 31.1086 22.4087C31.2009 22.462 31.3104 22.4886 31.4371 22.4886C31.5211 22.4886 31.598 22.4768 31.6679 22.4531C31.7377 22.4295 31.7975 22.3939 31.8472 22.3466C31.8969 22.2992 31.9348 22.2412 31.9608 22.1726L32.6604 22.2188C32.6249 22.3868 32.5521 22.5336 32.442 22.6591C32.3331 22.7834 32.1923 22.8804 32.0194 22.9503C31.8478 23.0189 31.6495 23.0533 31.4246 23.0533Z" fill="white" fill-opacity="0.7"/>
<path d="M9.83523 10.1818H11.0511V14.2386C11.0511 14.6136 10.9669 14.9394 10.7983 15.2159C10.6316 15.4924 10.3996 15.7055 10.1023 15.8551C9.80492 16.0047 9.45928 16.0795 9.06534 16.0795C8.71496 16.0795 8.39678 16.018 8.1108 15.8949C7.8267 15.7699 7.60133 15.5805 7.43466 15.3267C7.26799 15.071 7.18561 14.75 7.1875 14.3636H8.41193C8.41572 14.517 8.44697 14.6487 8.50568 14.7585C8.56629 14.8665 8.64867 14.9498 8.75284 15.0085C8.8589 15.0653 8.9839 15.0938 9.12784 15.0938C9.27936 15.0938 9.4072 15.0616 9.51136 14.9972C9.61742 14.9309 9.69792 14.8343 9.75284 14.7074C9.80777 14.5805 9.83523 14.4242 9.83523 14.2386V10.1818ZM17.4148 13.0909C17.4148 13.7254 17.2945 14.2652 17.054 14.7102C16.8153 15.1553 16.4896 15.4953 16.0767 15.7301C15.6657 15.9631 15.2036 16.0795 14.6903 16.0795C14.1733 16.0795 13.7093 15.9621 13.2983 15.7273C12.8873 15.4924 12.5625 15.1525 12.3239 14.7074C12.0852 14.2623 11.9659 13.7235 11.9659 13.0909C11.9659 12.4564 12.0852 11.9167 12.3239 11.4716C12.5625 11.0265 12.8873 10.6875 13.2983 10.4545C13.7093 10.2197 14.1733 10.1023 14.6903 10.1023C15.2036 10.1023 15.6657 10.2197 16.0767 10.4545C16.4896 10.6875 16.8153 11.0265 17.054 11.4716C17.2945 11.9167 17.4148 12.4564 17.4148 13.0909ZM16.1676 13.0909C16.1676 12.6799 16.1061 12.3333 15.983 12.0511C15.8617 11.7689 15.6903 11.5549 15.4688 11.4091C15.2472 11.2633 14.9877 11.1903 14.6903 11.1903C14.393 11.1903 14.1335 11.2633 13.9119 11.4091C13.6903 11.5549 13.518 11.7689 13.3949 12.0511C13.2737 12.3333 13.2131 12.6799 13.2131 13.0909C13.2131 13.5019 13.2737 13.8485 13.3949 14.1307C13.518 14.4129 13.6903 14.6269 13.9119 14.7727C14.1335 14.9186 14.393 14.9915 14.6903 14.9915C14.9877 14.9915 15.2472 14.9186 15.4688 14.7727C15.6903 14.6269 15.8617 14.4129 15.983 14.1307C16.1061 13.8485 16.1676 13.5019 16.1676 13.0909ZM21.4822 11.8551C21.4595 11.6259 21.362 11.4479 21.1896 11.321C21.0173 11.1941 20.7834 11.1307 20.4879 11.1307C20.2872 11.1307 20.1177 11.1591 19.9794 11.2159C19.8411 11.2708 19.7351 11.3475 19.6612 11.446C19.5893 11.5445 19.5533 11.6562 19.5533 11.7812C19.5495 11.8854 19.5713 11.9763 19.6186 12.054C19.6679 12.1316 19.7351 12.1989 19.8203 12.2557C19.9055 12.3106 20.004 12.3589 20.1158 12.4006C20.2275 12.4403 20.3468 12.4744 20.4737 12.5028L20.9964 12.6278C21.2502 12.6847 21.4832 12.7604 21.6953 12.8551C21.9074 12.9498 22.0911 13.0663 22.2464 13.2045C22.4018 13.3428 22.522 13.5057 22.6072 13.6932C22.6944 13.8807 22.7389 14.0956 22.7408 14.3381C22.7389 14.6941 22.648 15.0028 22.468 15.2642C22.29 15.5237 22.0324 15.7254 21.6953 15.8693C21.3601 16.0114 20.9557 16.0824 20.4822 16.0824C20.0125 16.0824 19.6035 16.0104 19.255 15.8665C18.9084 15.7225 18.6375 15.5095 18.4425 15.2273C18.2493 14.9432 18.148 14.5919 18.1385 14.1733H19.3288C19.3421 14.3684 19.398 14.5312 19.4964 14.6619C19.5968 14.7907 19.7304 14.8883 19.897 14.9545C20.0656 15.0189 20.2559 15.0511 20.468 15.0511C20.6764 15.0511 20.8572 15.0208 21.0107 14.9602C21.166 14.8996 21.2862 14.8153 21.3714 14.7074C21.4567 14.5994 21.4993 14.4754 21.4993 14.3352C21.4993 14.2045 21.4605 14.0947 21.3828 14.0057C21.3071 13.9167 21.1953 13.8409 21.0476 13.7784C20.9018 13.7159 20.7228 13.6591 20.5107 13.608L19.8771 13.4489C19.3866 13.3295 18.9993 13.143 18.7152 12.8892C18.4311 12.6354 18.29 12.2936 18.2919 11.8636C18.29 11.5114 18.3838 11.2036 18.5732 10.9403C18.7644 10.6771 19.0268 10.4716 19.3601 10.3239C19.6934 10.1761 20.0722 10.1023 20.4964 10.1023C20.9283 10.1023 21.3052 10.1761 21.6271 10.3239C21.951 10.4716 22.2029 10.6771 22.3828 10.9403C22.5627 11.2036 22.6555 11.5085 22.6612 11.8551H21.4822ZM23.2273 10.1818H24.6051L25.9318 12.6875H25.9886L27.3153 10.1818H28.6932L26.571 13.9432V16H25.3494V13.9432L23.2273 10.1818Z" fill="white" fill-opacity="0.7"/>
</svg>
