<svg width="36" height="35" viewBox="0 0 36 35" fill="none" xmlns="http://www.w3.org/2000/svg">
<rect width="36" height="35" rx="6" fill="white"/>
<path d="M8.83523 12.1818H10.0511V16.2386C10.0511 16.6136 9.96686 16.9394 9.7983 17.2159C9.63163 17.4924 9.39962 17.7055 9.10227 17.8551C8.80492 18.0047 8.45928 18.0795 8.06534 18.0795C7.71496 18.0795 7.39678 18.018 7.1108 17.8949C6.8267 17.7699 6.60133 17.5805 6.43466 17.3267C6.26799 17.071 6.18561 16.75 6.1875 16.3636H7.41193C7.41572 16.517 7.44697 16.6487 7.50568 16.7585C7.56629 16.8665 7.64867 16.9498 7.75284 17.0085C7.8589 17.0653 7.9839 17.0938 8.12784 17.0938C8.27936 17.0938 8.4072 17.0616 8.51136 16.9972C8.61742 16.9309 8.69792 16.8343 8.75284 16.7074C8.80777 16.5805 8.83523 16.4242 8.83523 16.2386V12.1818ZM16.4148 15.0909C16.4148 15.7254 16.2945 16.2652 16.054 16.7102C15.8153 17.1553 15.4896 17.4953 15.0767 17.7301C14.6657 17.9631 14.2036 18.0795 13.6903 18.0795C13.1733 18.0795 12.7093 17.9621 12.2983 17.7273C11.8873 17.4924 11.5625 17.1525 11.3239 16.7074C11.0852 16.2623 10.9659 15.7235 10.9659 15.0909C10.9659 14.4564 11.0852 13.9167 11.3239 13.4716C11.5625 13.0265 11.8873 12.6875 12.2983 12.4545C12.7093 12.2197 13.1733 12.1023 13.6903 12.1023C14.2036 12.1023 14.6657 12.2197 15.0767 12.4545C15.4896 12.6875 15.8153 13.0265 16.054 13.4716C16.2945 13.9167 16.4148 14.4564 16.4148 15.0909ZM15.1676 15.0909C15.1676 14.6799 15.1061 14.3333 14.983 14.0511C14.8617 13.7689 14.6903 13.5549 14.4688 13.4091C14.2472 13.2633 13.9877 13.1903 13.6903 13.1903C13.393 13.1903 13.1335 13.2633 12.9119 13.4091C12.6903 13.5549 12.518 13.7689 12.3949 14.0511C12.2737 14.3333 12.2131 14.6799 12.2131 15.0909C12.2131 15.5019 12.2737 15.8485 12.3949 16.1307C12.518 16.4129 12.6903 16.6269 12.9119 16.7727C13.1335 16.9186 13.393 16.9915 13.6903 16.9915C13.9877 16.9915 14.2472 16.9186 14.4688 16.7727C14.6903 16.6269 14.8617 16.4129 14.983 16.1307C15.1061 15.8485 15.1676 15.5019 15.1676 15.0909ZM20.4822 13.8551C20.4595 13.6259 20.362 13.4479 20.1896 13.321C20.0173 13.1941 19.7834 13.1307 19.4879 13.1307C19.2872 13.1307 19.1177 13.1591 18.9794 13.2159C18.8411 13.2708 18.7351 13.3475 18.6612 13.446C18.5893 13.5445 18.5533 13.6562 18.5533 13.7812C18.5495 13.8854 18.5713 13.9763 18.6186 14.054C18.6679 14.1316 18.7351 14.1989 18.8203 14.2557C18.9055 14.3106 19.004 14.3589 19.1158 14.4006C19.2275 14.4403 19.3468 14.4744 19.4737 14.5028L19.9964 14.6278C20.2502 14.6847 20.4832 14.7604 20.6953 14.8551C20.9074 14.9498 21.0911 15.0663 21.2464 15.2045C21.4018 15.3428 21.522 15.5057 21.6072 15.6932C21.6944 15.8807 21.7389 16.0956 21.7408 16.3381C21.7389 16.6941 21.648 17.0028 21.468 17.2642C21.29 17.5237 21.0324 17.7254 20.6953 17.8693C20.3601 18.0114 19.9557 18.0824 19.4822 18.0824C19.0125 18.0824 18.6035 18.0104 18.255 17.8665C17.9084 17.7225 17.6375 17.5095 17.4425 17.2273C17.2493 16.9432 17.148 16.5919 17.1385 16.1733H18.3288C18.3421 16.3684 18.398 16.5312 18.4964 16.6619C18.5968 16.7907 18.7304 16.8883 18.897 16.9545C19.0656 17.0189 19.2559 17.0511 19.468 17.0511C19.6764 17.0511 19.8572 17.0208 20.0107 16.9602C20.166 16.8996 20.2862 16.8153 20.3714 16.7074C20.4567 16.5994 20.4993 16.4754 20.4993 16.3352C20.4993 16.2045 20.4605 16.0947 20.3828 16.0057C20.3071 15.9167 20.1953 15.8409 20.0476 15.7784C19.9018 15.7159 19.7228 15.6591 19.5107 15.608L18.8771 15.4489C18.3866 15.3295 17.9993 15.143 17.7152 14.8892C17.4311 14.6354 17.29 14.2936 17.2919 13.8636C17.29 13.5114 17.3838 13.2036 17.5732 12.9403C17.7644 12.6771 18.0268 12.4716 18.3601 12.3239C18.6934 12.1761 19.0722 12.1023 19.4964 12.1023C19.9283 12.1023 20.3052 12.1761 20.6271 12.3239C20.951 12.4716 21.2029 12.6771 21.3828 12.9403C21.5627 13.2036 21.6555 13.5085 21.6612 13.8551H20.4822ZM22.2273 12.1818H23.6051L24.9318 14.6875H24.9886L26.3153 12.1818H27.6932L25.571 15.9432V18H24.3494V15.9432L22.2273 12.1818Z" fill="#1E1E1E"/>
<path d="M4.31605 23V19.3636H5.75071C6.02533 19.3636 6.25971 19.4128 6.45384 19.511C6.64915 19.6081 6.7977 19.746 6.8995 19.9247C7.00249 20.1023 7.05398 20.3112 7.05398 20.5515C7.05398 20.793 7.00189 21.0007 6.89773 21.1747C6.79356 21.3475 6.64264 21.4801 6.44496 21.5724C6.24846 21.6648 6.01054 21.7109 5.73118 21.7109H4.7706V21.093H5.60689C5.75367 21.093 5.87559 21.0729 5.97266 21.0327C6.06972 20.9924 6.14193 20.9321 6.18928 20.8516C6.23781 20.7711 6.26207 20.671 6.26207 20.5515C6.26207 20.4308 6.23781 20.329 6.18928 20.2461C6.14193 20.1632 6.06913 20.1005 5.97088 20.0579C5.87382 20.0141 5.7513 19.9922 5.60334 19.9922H5.08487V23H4.31605ZM6.27983 21.3452L7.18359 23H6.33487L5.45064 21.3452H6.27983ZM8.78205 23.0533C8.50151 23.0533 8.26003 22.9964 8.05762 22.8828C7.85639 22.768 7.70132 22.6058 7.59242 22.3963C7.48352 22.1856 7.42907 21.9364 7.42907 21.6488C7.42907 21.3683 7.48352 21.122 7.59242 20.9102C7.70132 20.6983 7.85461 20.5331 8.05229 20.4148C8.25115 20.2964 8.48435 20.2372 8.75186 20.2372C8.93179 20.2372 9.09928 20.2662 9.25435 20.3242C9.4106 20.381 9.54673 20.4669 9.66273 20.5817C9.77992 20.6965 9.87106 20.8409 9.93617 21.0149C10.0013 21.1877 10.0338 21.3902 10.0338 21.6222V21.8299H7.73091V21.3612H9.32182C9.32182 21.2522 9.29815 21.1558 9.2508 21.0717C9.20345 20.9877 9.13775 20.922 9.05371 20.8746C8.97085 20.8261 8.87438 20.8018 8.76429 20.8018C8.64947 20.8018 8.54767 20.8285 8.4589 20.8817C8.3713 20.9338 8.30265 21.0043 8.25293 21.093C8.20321 21.1806 8.17776 21.2783 8.17658 21.386V21.8317C8.17658 21.9666 8.20144 22.0832 8.25115 22.1815C8.30205 22.2797 8.37367 22.3555 8.466 22.4087C8.55833 22.462 8.66782 22.4886 8.79448 22.4886C8.87852 22.4886 8.95546 22.4768 9.0253 22.4531C9.09514 22.4295 9.15492 22.3939 9.20463 22.3466C9.25435 22.2992 9.29223 22.2412 9.31827 22.1726L10.0178 22.2188C9.98233 22.3868 9.90953 22.5336 9.79945 22.6591C9.69055 22.7834 9.54969 22.8804 9.37686 22.9503C9.20523 23.0189 9.00695 23.0533 8.78205 23.0533ZM12.7966 21.0504L12.1041 21.093C12.0923 21.0339 12.0669 20.9806 12.0278 20.9332C11.9887 20.8847 11.9372 20.8462 11.8733 20.8178C11.8106 20.7882 11.7354 20.7734 11.6478 20.7734C11.5306 20.7734 11.4318 20.7983 11.3513 20.848C11.2708 20.8965 11.2306 20.9616 11.2306 21.0433C11.2306 21.1084 11.2566 21.1635 11.3087 21.2085C11.3608 21.2534 11.4501 21.2895 11.5768 21.3168L12.0704 21.4162C12.3356 21.4706 12.5332 21.5582 12.6634 21.679C12.7936 21.7997 12.8588 21.9583 12.8588 22.1548C12.8588 22.3336 12.8061 22.4904 12.7007 22.6254C12.5966 22.7603 12.4533 22.8656 12.271 22.9414C12.0899 23.016 11.881 23.0533 11.6443 23.0533C11.2832 23.0533 10.9956 22.9781 10.7813 22.8278C10.5683 22.6763 10.4434 22.4703 10.4067 22.2099L11.1507 22.1708C11.1731 22.2809 11.2276 22.3649 11.314 22.4229C11.4004 22.4798 11.5111 22.5082 11.646 22.5082C11.7786 22.5082 11.8852 22.4827 11.9656 22.4318C12.0473 22.3797 12.0887 22.3129 12.0899 22.2312C12.0887 22.1625 12.0597 22.1063 12.0029 22.0625C11.9461 22.0175 11.8585 21.9832 11.7401 21.9595L11.2678 21.8654C11.0015 21.8121 10.8032 21.7198 10.673 21.5884C10.544 21.457 10.4795 21.2895 10.4795 21.0859C10.4795 20.9107 10.5268 20.7598 10.6215 20.6332C10.7174 20.5065 10.8518 20.4089 11.0246 20.3402C11.1986 20.2715 11.4022 20.2372 11.6354 20.2372C11.9798 20.2372 12.2509 20.31 12.4486 20.4556C12.6475 20.6012 12.7635 20.7995 12.7966 21.0504ZM14.7857 20.2727V20.8409H13.1433V20.2727H14.7857ZM13.5162 19.6193H14.2725V22.1619C14.2725 22.2318 14.2832 22.2862 14.3045 22.3253C14.3258 22.3632 14.3554 22.3898 14.3933 22.4052C14.4324 22.4206 14.4773 22.4283 14.5282 22.4283C14.5637 22.4283 14.5993 22.4253 14.6348 22.4194C14.6703 22.4123 14.6975 22.407 14.7164 22.4034L14.8354 22.9663C14.7975 22.9781 14.7443 22.9917 14.6756 23.0071C14.6069 23.0237 14.5235 23.0337 14.4252 23.0373C14.243 23.0444 14.0832 23.0201 13.9458 22.9645C13.8097 22.9089 13.7038 22.8224 13.628 22.7053C13.5523 22.5881 13.515 22.4401 13.5162 22.2614V19.6193ZM16.0561 23.0515C15.8821 23.0515 15.727 23.0213 15.5909 22.9609C15.4548 22.8994 15.3471 22.8088 15.2678 22.6893C15.1896 22.5685 15.1506 22.4182 15.1506 22.2383C15.1506 22.0868 15.1784 21.9595 15.234 21.8565C15.2897 21.7536 15.3654 21.6707 15.4613 21.608C15.5572 21.5452 15.6661 21.4979 15.788 21.4659C15.9111 21.4339 16.0401 21.4115 16.1751 21.3984C16.3337 21.3819 16.4615 21.3665 16.5586 21.3523C16.6557 21.3369 16.7261 21.3144 16.7699 21.2848C16.8137 21.2552 16.8356 21.2114 16.8356 21.1534V21.1428C16.8356 21.0303 16.8001 20.9433 16.729 20.8817C16.6592 20.8202 16.5598 20.7894 16.4308 20.7894C16.2946 20.7894 16.1863 20.8196 16.1058 20.88C16.0253 20.9392 15.9721 21.0137 15.946 21.1037L15.2464 21.0469C15.282 20.8812 15.3518 20.7379 15.456 20.6172C15.5601 20.4953 15.6945 20.4018 15.859 20.3366C16.0247 20.2704 16.2165 20.2372 16.4343 20.2372C16.5858 20.2372 16.7308 20.255 16.8693 20.2905C17.009 20.326 17.1327 20.381 17.2404 20.4556C17.3493 20.5302 17.4351 20.6261 17.4979 20.7433C17.5606 20.8593 17.592 20.9983 17.592 21.1605V23H16.8746V22.6218H16.8533C16.8095 22.707 16.7509 22.7822 16.6776 22.8473C16.6042 22.9112 16.516 22.9615 16.413 22.9982C16.31 23.0337 16.1911 23.0515 16.0561 23.0515ZM16.2727 22.5295C16.384 22.5295 16.4822 22.5076 16.5675 22.4638C16.6527 22.4188 16.7196 22.3584 16.7681 22.2827C16.8166 22.2069 16.8409 22.1211 16.8409 22.0252V21.7358C16.8172 21.7512 16.7847 21.7654 16.7433 21.7784C16.703 21.7902 16.6574 21.8015 16.6065 21.8121C16.5556 21.8216 16.5047 21.8305 16.4538 21.8388C16.4029 21.8459 16.3568 21.8524 16.3153 21.8583C16.2266 21.8713 16.149 21.892 16.0827 21.9205C16.0165 21.9489 15.965 21.9873 15.9283 22.0359C15.8916 22.0832 15.8732 22.1424 15.8732 22.2134C15.8732 22.3164 15.9105 22.3951 15.9851 22.4496C16.0608 22.5028 16.1567 22.5295 16.2727 22.5295ZM19.9277 21.8388V20.2727H20.6841V23H19.9579V22.5046H19.9295C19.868 22.6644 19.7656 22.7929 19.6223 22.8899C19.4803 22.987 19.3069 23.0355 19.1021 23.0355C18.9198 23.0355 18.7594 22.9941 18.6209 22.9112C18.4824 22.8284 18.3741 22.7106 18.296 22.5579C18.219 22.4052 18.18 22.2223 18.1788 22.0092V20.2727H18.9352V21.8743C18.9364 22.0353 18.9796 22.1625 19.0648 22.256C19.15 22.3496 19.2643 22.3963 19.4075 22.3963C19.4986 22.3963 19.5839 22.3756 19.6632 22.3342C19.7425 22.2915 19.8064 22.2288 19.8549 22.146C19.9047 22.0631 19.9289 21.9607 19.9277 21.8388ZM21.2892 23V20.2727H22.0225V20.7486H22.0509C22.1006 20.5793 22.184 20.4515 22.3012 20.3651C22.4184 20.2775 22.5534 20.2337 22.7061 20.2337C22.7439 20.2337 22.7848 20.236 22.8286 20.2408C22.8724 20.2455 22.9108 20.252 22.944 20.2603V20.9315C22.9085 20.9208 22.8593 20.9113 22.7966 20.9031C22.7339 20.8948 22.6765 20.8906 22.6244 20.8906C22.5131 20.8906 22.4137 20.9149 22.3261 20.9634C22.2397 21.0108 22.171 21.0771 22.1201 21.1623C22.0704 21.2475 22.0455 21.3458 22.0455 21.457V23H21.2892ZM24.0346 23.0515C23.8606 23.0515 23.7056 23.0213 23.5694 22.9609C23.4333 22.8994 23.3256 22.8088 23.2463 22.6893C23.1681 22.5685 23.1291 22.4182 23.1291 22.2383C23.1291 22.0868 23.1569 21.9595 23.2125 21.8565C23.2682 21.7536 23.3439 21.6707 23.4398 21.608C23.5357 21.5452 23.6446 21.4979 23.7665 21.4659C23.8896 21.4339 24.0186 21.4115 24.1536 21.3984C24.3122 21.3819 24.44 21.3665 24.5371 21.3523C24.6342 21.3369 24.7046 21.3144 24.7484 21.2848C24.7922 21.2552 24.8141 21.2114 24.8141 21.1534V21.1428C24.8141 21.0303 24.7786 20.9433 24.7076 20.8817C24.6377 20.8202 24.5383 20.7894 24.4093 20.7894C24.2731 20.7894 24.1648 20.8196 24.0843 20.88C24.0038 20.9392 23.9506 21.0137 23.9245 21.1037L23.225 21.0469C23.2605 20.8812 23.3303 20.7379 23.4345 20.6172C23.5386 20.4953 23.673 20.4018 23.8375 20.3366C24.0033 20.2704 24.195 20.2372 24.4128 20.2372C24.5643 20.2372 24.7093 20.255 24.8478 20.2905C24.9875 20.326 25.1112 20.381 25.2189 20.4556C25.3278 20.5302 25.4136 20.6261 25.4764 20.7433C25.5391 20.8593 25.5705 20.9983 25.5705 21.1605V23H24.8532V22.6218H24.8319C24.7881 22.707 24.7295 22.7822 24.6561 22.8473C24.5827 22.9112 24.4945 22.9615 24.3915 22.9982C24.2885 23.0337 24.1696 23.0515 24.0346 23.0515ZM24.2512 22.5295C24.3625 22.5295 24.4608 22.5076 24.546 22.4638C24.6312 22.4188 24.6981 22.3584 24.7466 22.2827C24.7952 22.2069 24.8194 22.1211 24.8194 22.0252V21.7358C24.7958 21.7512 24.7632 21.7654 24.7218 21.7784C24.6815 21.7902 24.6359 21.8015 24.585 21.8121C24.5342 21.8216 24.4833 21.8305 24.4324 21.8388C24.3815 21.8459 24.3353 21.8524 24.2939 21.8583C24.2051 21.8713 24.1275 21.892 24.0613 21.9205C23.995 21.9489 23.9435 21.9873 23.9068 22.0359C23.8701 22.0832 23.8517 22.1424 23.8517 22.2134C23.8517 22.3164 23.889 22.3951 23.9636 22.4496C24.0394 22.5028 24.1352 22.5295 24.2512 22.5295ZM26.9137 21.4233V23H26.1573V20.2727H26.8782V20.7539H26.9102C26.9705 20.5953 27.0717 20.4698 27.2138 20.3775C27.3558 20.284 27.5281 20.2372 27.7305 20.2372C27.9199 20.2372 28.085 20.2786 28.2259 20.3615C28.3667 20.4444 28.4762 20.5627 28.5543 20.7166C28.6325 20.8693 28.6715 21.0516 28.6715 21.2635V23H27.9151V21.3984C27.9163 21.2315 27.8737 21.1013 27.7873 21.0078C27.7009 20.9131 27.5819 20.8658 27.4304 20.8658C27.3286 20.8658 27.2386 20.8877 27.1605 20.9315C27.0836 20.9753 27.0232 21.0392 26.9794 21.1232C26.9368 21.2061 26.9149 21.3061 26.9137 21.4233ZM30.7183 20.2727V20.8409H29.0759V20.2727H30.7183ZM29.4488 19.6193H30.2052V22.1619C30.2052 22.2318 30.2158 22.2862 30.2371 22.3253C30.2584 22.3632 30.288 22.3898 30.3259 22.4052C30.365 22.4206 30.4099 22.4283 30.4608 22.4283C30.4964 22.4283 30.5319 22.4253 30.5674 22.4194C30.6029 22.4123 30.6301 22.407 30.6491 22.4034L30.768 22.9663C30.7301 22.9781 30.6769 22.9917 30.6082 23.0071C30.5396 23.0237 30.4561 23.0337 30.3579 23.0373C30.1756 23.0444 30.0158 23.0201 29.8785 22.9645C29.7423 22.9089 29.6364 22.8224 29.5606 22.7053C29.4849 22.5881 29.4476 22.4401 29.4488 22.2614V19.6193ZM32.4246 23.0533C32.1441 23.0533 31.9026 22.9964 31.7002 22.8828C31.499 22.768 31.3439 22.6058 31.235 22.3963C31.1261 22.1856 31.0716 21.9364 31.0716 21.6488C31.0716 21.3683 31.1261 21.122 31.235 20.9102C31.3439 20.6983 31.4972 20.5331 31.6949 20.4148C31.8937 20.2964 32.1269 20.2372 32.3944 20.2372C32.5744 20.2372 32.7419 20.2662 32.8969 20.3242C33.0532 20.381 33.1893 20.4669 33.3053 20.5817C33.4225 20.6965 33.5136 20.8409 33.5787 21.0149C33.6439 21.1877 33.6764 21.3902 33.6764 21.6222V21.8299H31.3735V21.3612H32.9644C32.9644 21.2522 32.9407 21.1558 32.8934 21.0717C32.846 20.9877 32.7803 20.922 32.6963 20.8746C32.6134 20.8261 32.517 20.8018 32.4069 20.8018C32.2921 20.8018 32.1903 20.8285 32.1015 20.8817C32.0139 20.9338 31.9452 21.0043 31.8955 21.093C31.8458 21.1806 31.8203 21.2783 31.8192 21.386V21.8317C31.8192 21.9666 31.844 22.0832 31.8937 22.1815C31.9446 22.2797 32.0162 22.3555 32.1086 22.4087C32.2009 22.462 32.3104 22.4886 32.4371 22.4886C32.5211 22.4886 32.598 22.4768 32.6679 22.4531C32.7377 22.4295 32.7975 22.3939 32.8472 22.3466C32.8969 22.2992 32.9348 22.2412 32.9608 22.1726L33.6604 22.2188C33.6249 22.3868 33.5521 22.5336 33.442 22.6591C33.3331 22.7834 33.1923 22.8804 33.0194 22.9503C32.8478 23.0189 32.6495 23.0533 32.4246 23.0533Z" fill="black"/>
</svg>
