<svg width="36" height="35" viewBox="0 0 36 35" fill="none" xmlns="http://www.w3.org/2000/svg">
<rect width="36" height="35" rx="6" fill="black"/>
<path d="M9.59185 2.625C8.49818 2.625 7.57123 3.21694 7.45786 4.0086C7.29336 5.13793 7.02439 7.18244 7.02439 8.44011C7.02439 9.62719 7.77796 10.6875 8.95499 11.3854C9.34177 11.6148 9.52516 11.8666 9.52516 12.0784V12.6093L9.52405 12.647C9.47848 13.1275 8.96944 18.4918 8.96944 19.4688C8.96944 19.7847 9.05568 20.0976 9.22325 20.3896C9.39082 20.6815 9.63642 20.9468 9.94605 21.1702C10.2557 21.3937 10.6232 21.5709 11.0278 21.6918C11.4323 21.8128 11.8659 21.875 12.3038 21.875C12.7417 21.875 13.1753 21.8128 13.5798 21.6918C13.9843 21.5709 14.3519 21.3937 14.6615 21.1702C14.9712 20.9468 15.2168 20.6815 15.3843 20.3896C15.5519 20.0976 15.6382 19.7847 15.6382 19.4688C15.6382 18.4918 15.1302 13.1275 15.0835 12.647L15.0824 12.6093V12.0784C15.0824 11.8658 15.2658 11.6148 15.6526 11.3854C16.2567 11.0284 16.7434 10.5789 17.0773 10.0695C17.4112 9.56017 17.584 9.0036 17.5832 8.44011C17.5832 7.18244 17.3142 5.13793 17.1497 4.0086C17.0942 3.62833 16.8453 3.27642 16.4512 3.02088C16.057 2.76533 15.5456 2.62429 15.0157 2.625C14.5078 2.625 14.0399 2.75173 13.6709 2.96428C13.2803 2.74443 12.7991 2.62502 12.3038 2.625C11.8084 2.62502 11.3273 2.74443 10.9367 2.96428C10.5551 2.74393 10.0806 2.62423 9.59185 2.625ZM11.7481 4.22917C11.7481 4.12281 11.8066 4.0208 11.9108 3.94559C12.0151 3.87038 12.1564 3.82813 12.3038 3.82813C12.4512 3.82813 12.5925 3.87038 12.6968 3.94559C12.801 4.0208 12.8595 4.12281 12.8595 4.22917V8.44011C12.8595 8.59965 12.9474 8.75266 13.1037 8.86548C13.26 8.97829 13.472 9.04167 13.6931 9.04167C13.9142 9.04167 14.1262 8.97829 14.2826 8.86548C14.4389 8.75266 14.5267 8.59965 14.5267 8.44011V4.18105C14.5267 4.08745 14.5782 3.99768 14.6699 3.9315C14.7617 3.86531 14.886 3.82813 15.0157 3.82813C15.2658 3.82813 15.4681 3.96208 15.4926 4.13372C15.6571 5.27268 15.916 7.25543 15.916 8.44011C15.9168 8.8258 15.7986 9.20678 15.5701 9.55541C15.3415 9.90404 15.0082 10.2116 14.5945 10.4557C13.9965 10.8103 13.4153 11.3701 13.4153 12.0784V12.6093C13.4153 12.6494 13.4164 12.6863 13.4208 12.7296C13.4697 13.247 13.971 18.5456 13.971 19.4688C13.971 19.7878 13.7953 20.0939 13.4827 20.3195C13.17 20.5451 12.746 20.6719 12.3038 20.6719C11.8616 20.6719 11.4376 20.5451 11.1249 20.3195C10.8123 20.0939 10.6366 19.7878 10.6366 19.4688C10.6366 18.5464 11.1368 13.247 11.1868 12.7296C11.1912 12.6863 11.1923 12.6494 11.1923 12.6093V12.0784C11.1923 11.3693 10.6111 10.8103 10.0131 10.4557C9.59935 10.2116 9.26611 9.90404 9.03753 9.55541C8.80896 9.20678 8.69078 8.8258 8.69157 8.44011C8.69157 7.25543 8.95054 5.27348 9.11504 4.13372C9.12773 4.04915 9.18358 3.97101 9.27172 3.91452C9.35986 3.85803 9.47398 3.82724 9.59185 3.82813C9.72155 3.82813 9.84594 3.86531 9.93765 3.9315C10.0294 3.99768 10.0809 4.08745 10.0809 4.18105V8.44011C10.0809 8.59965 10.1687 8.75266 10.325 8.86548C10.4814 8.97829 10.6934 9.04167 10.9145 9.04167C11.1356 9.04167 11.3476 8.97829 11.5039 8.86548C11.6602 8.75266 11.7481 8.59965 11.7481 8.44011V4.22917ZM26.7527 3.83294V11.6484C26.7527 11.9292 26.8572 13.2502 26.9728 14.7044L26.9794 14.7886C27.135 16.7425 27.3084 18.9314 27.3084 19.4688C27.3084 19.7878 27.1328 20.0939 26.8201 20.3195C26.5075 20.5451 26.0834 20.6719 25.6412 20.6719C25.1991 20.6719 24.775 20.5451 24.4624 20.3195C24.1497 20.0939 23.9741 19.7878 23.9741 19.4688C23.9741 18.9915 24.1108 17.0601 24.2508 15.2177C24.3328 14.138 24.4173 13.0584 24.5042 11.9789L24.5287 11.6837L24.5298 11.6484C24.5298 11.4889 24.442 11.3359 24.2856 11.2231C24.1293 11.1103 23.9173 11.0469 23.6962 11.0469H21.4733C21.3996 11.0469 21.3289 11.0258 21.2768 10.9881C21.2247 10.9505 21.1954 10.8995 21.1954 10.8464V8.03907C21.1954 6.95698 21.7727 5.91642 22.8074 5.13327C23.8422 4.35011 25.2549 3.88447 26.7527 3.83294ZM22.8126 12.25L22.777 12.696C22.7248 13.3513 22.6548 14.236 22.5859 15.1519C22.448 16.9703 22.3069 18.949 22.3069 19.4688C22.3069 19.7847 22.3931 20.0976 22.5607 20.3896C22.7283 20.6815 22.9739 20.9468 23.2835 21.1702C23.5931 21.3937 23.9607 21.5709 24.3652 21.6918C24.7698 21.8128 25.2034 21.875 25.6412 21.875C26.0791 21.875 26.5127 21.8128 26.9173 21.6918C27.3218 21.5709 27.6894 21.3937 27.999 21.1702C28.3086 20.9468 28.5542 20.6815 28.7218 20.3896C28.8894 20.0976 28.9756 19.7847 28.9756 19.4688C28.9756 18.8904 28.8 16.6823 28.6488 14.7726L28.6444 14.7196C28.5232 13.1965 28.4199 11.8891 28.4199 11.6484V3.22657C28.4199 3.06702 28.3321 2.91401 28.1757 2.8012C28.0194 2.68838 27.8074 2.625 27.5863 2.625H27.0306C25.0408 2.625 23.1326 3.19541 21.7256 4.21075C20.3187 5.22608 19.5283 6.60317 19.5283 8.03907V10.8464C19.5283 11.6212 20.3996 12.25 21.4733 12.25H22.8126Z" fill="url(#paint0_linear_1_56)"/>
<path d="M3.31605 32V28.3636H4.75071C5.02533 28.3636 5.25971 28.4128 5.45384 28.511C5.64915 28.6081 5.7977 28.746 5.8995 28.9247C6.00249 29.1023 6.05398 29.3112 6.05398 29.5515C6.05398 29.793 6.00189 30.0007 5.89773 30.1747C5.79356 30.3475 5.64264 30.4801 5.44496 30.5724C5.24846 30.6648 5.01054 30.7109 4.73118 30.7109H3.7706V30.093H4.60689C4.75367 30.093 4.87559 30.0729 4.97266 30.0327C5.06972 29.9924 5.14193 29.9321 5.18928 29.8516C5.23781 29.7711 5.26207 29.671 5.26207 29.5515C5.26207 29.4308 5.23781 29.329 5.18928 29.2461C5.14193 29.1632 5.06913 29.1005 4.97088 29.0579C4.87382 29.0141 4.7513 28.9922 4.60334 28.9922H4.08487V32H3.31605ZM5.27983 30.3452L6.18359 32H5.33487L4.45064 30.3452H5.27983ZM7.78205 32.0533C7.50151 32.0533 7.26003 31.9964 7.05762 31.8828C6.85639 31.768 6.70132 31.6058 6.59242 31.3963C6.48352 31.1856 6.42907 30.9364 6.42907 30.6488C6.42907 30.3683 6.48352 30.122 6.59242 29.9102C6.70132 29.6983 6.85461 29.5331 7.05229 29.4148C7.25115 29.2964 7.48435 29.2372 7.75186 29.2372C7.93179 29.2372 8.09928 29.2662 8.25435 29.3242C8.4106 29.381 8.54673 29.4669 8.66273 29.5817C8.77992 29.6965 8.87106 29.8409 8.93617 30.0149C9.00127 30.1877 9.03382 30.3902 9.03382 30.6222V30.8299H6.73091V30.3612H8.32182C8.32182 30.2522 8.29815 30.1558 8.2508 30.0717C8.20345 29.9877 8.13775 29.922 8.05371 29.8746C7.97085 29.8261 7.87438 29.8018 7.76429 29.8018C7.64947 29.8018 7.54767 29.8285 7.4589 29.8817C7.3713 29.9338 7.30265 30.0043 7.25293 30.093C7.20321 30.1806 7.17776 30.2783 7.17658 30.386V30.8317C7.17658 30.9666 7.20144 31.0832 7.25115 31.1815C7.30205 31.2797 7.37367 31.3555 7.466 31.4087C7.55833 31.462 7.66782 31.4886 7.79448 31.4886C7.87852 31.4886 7.95546 31.4768 8.0253 31.4531C8.09514 31.4295 8.15492 31.3939 8.20463 31.3466C8.25435 31.2992 8.29223 31.2412 8.31827 31.1726L9.01784 31.2188C8.98233 31.3868 8.90953 31.5336 8.79945 31.6591C8.69055 31.7834 8.54969 31.8804 8.37686 31.9503C8.20523 32.0189 8.00695 32.0533 7.78205 32.0533ZM11.7966 30.0504L11.1041 30.093C11.0923 30.0339 11.0669 29.9806 11.0278 29.9332C10.9887 29.8847 10.9372 29.8462 10.8733 29.8178C10.8106 29.7882 10.7354 29.7734 10.6478 29.7734C10.5306 29.7734 10.4318 29.7983 10.3513 29.848C10.2708 29.8965 10.2306 29.9616 10.2306 30.0433C10.2306 30.1084 10.2566 30.1635 10.3087 30.2085C10.3608 30.2534 10.4501 30.2895 10.5768 30.3168L11.0704 30.4162C11.3356 30.4706 11.5332 30.5582 11.6634 30.679C11.7936 30.7997 11.8588 30.9583 11.8588 31.1548C11.8588 31.3336 11.8061 31.4904 11.7007 31.6254C11.5966 31.7603 11.4533 31.8656 11.271 31.9414C11.0899 32.016 10.881 32.0533 10.6443 32.0533C10.2832 32.0533 9.99559 31.9781 9.78134 31.8278C9.56827 31.6763 9.44339 31.4703 9.40669 31.2099L10.1507 31.1708C10.1731 31.2809 10.2276 31.3649 10.314 31.4229C10.4004 31.4798 10.5111 31.5082 10.646 31.5082C10.7786 31.5082 10.8852 31.4827 10.9656 31.4318C11.0473 31.3797 11.0887 31.3129 11.0899 31.2312C11.0887 31.1625 11.0597 31.1063 11.0029 31.0625C10.9461 31.0175 10.8585 30.9832 10.7401 30.9595L10.2678 30.8654C10.0015 30.8121 9.80324 30.7198 9.67303 30.5884C9.544 30.457 9.47949 30.2895 9.47949 30.0859C9.47949 29.9107 9.52684 29.7598 9.62154 29.6332C9.71742 29.5065 9.85177 29.4089 10.0246 29.3402C10.1986 29.2715 10.4022 29.2372 10.6354 29.2372C10.9798 29.2372 11.2509 29.31 11.4486 29.4556C11.6475 29.6012 11.7635 29.7995 11.7966 30.0504ZM13.7857 29.2727V29.8409H12.1433V29.2727H13.7857ZM12.5162 28.6193H13.2725V31.1619C13.2725 31.2318 13.2832 31.2862 13.3045 31.3253C13.3258 31.3632 13.3554 31.3898 13.3933 31.4052C13.4324 31.4206 13.4773 31.4283 13.5282 31.4283C13.5637 31.4283 13.5993 31.4253 13.6348 31.4194C13.6703 31.4123 13.6975 31.407 13.7164 31.4034L13.8354 31.9663C13.7975 31.9781 13.7443 31.9917 13.6756 32.0071C13.6069 32.0237 13.5235 32.0337 13.4252 32.0373C13.243 32.0444 13.0832 32.0201 12.9458 31.9645C12.8097 31.9089 12.7038 31.8224 12.628 31.7053C12.5523 31.5881 12.515 31.4401 12.5162 31.2614V28.6193ZM15.0561 32.0515C14.8821 32.0515 14.727 32.0213 14.5909 31.9609C14.4548 31.8994 14.3471 31.8088 14.2678 31.6893C14.1896 31.5685 14.1506 31.4182 14.1506 31.2383C14.1506 31.0868 14.1784 30.9595 14.234 30.8565C14.2897 30.7536 14.3654 30.6707 14.4613 30.608C14.5572 30.5452 14.6661 30.4979 14.788 30.4659C14.9111 30.4339 15.0401 30.4115 15.1751 30.3984C15.3337 30.3819 15.4615 30.3665 15.5586 30.3523C15.6557 30.3369 15.7261 30.3144 15.7699 30.2848C15.8137 30.2552 15.8356 30.2114 15.8356 30.1534V30.1428C15.8356 30.0303 15.8001 29.9433 15.729 29.8817C15.6592 29.8202 15.5598 29.7894 15.4308 29.7894C15.2946 29.7894 15.1863 29.8196 15.1058 29.88C15.0253 29.9392 14.9721 30.0137 14.946 30.1037L14.2464 30.0469C14.282 29.8812 14.3518 29.7379 14.456 29.6172C14.5601 29.4953 14.6945 29.4018 14.859 29.3366C15.0247 29.2704 15.2165 29.2372 15.4343 29.2372C15.5858 29.2372 15.7308 29.255 15.8693 29.2905C16.009 29.326 16.1327 29.381 16.2404 29.4556C16.3493 29.5302 16.4351 29.6261 16.4979 29.7433C16.5606 29.8593 16.592 29.9983 16.592 30.1605V32H15.8746V31.6218H15.8533C15.8095 31.707 15.7509 31.7822 15.6776 31.8473C15.6042 31.9112 15.516 31.9615 15.413 31.9982C15.31 32.0337 15.1911 32.0515 15.0561 32.0515ZM15.2727 31.5295C15.384 31.5295 15.4822 31.5076 15.5675 31.4638C15.6527 31.4188 15.7196 31.3584 15.7681 31.2827C15.8166 31.2069 15.8409 31.1211 15.8409 31.0252V30.7358C15.8172 30.7512 15.7847 30.7654 15.7433 30.7784C15.703 30.7902 15.6574 30.8015 15.6065 30.8121C15.5556 30.8216 15.5047 30.8305 15.4538 30.8388C15.4029 30.8459 15.3568 30.8524 15.3153 30.8583C15.2266 30.8713 15.149 30.892 15.0827 30.9205C15.0165 30.9489 14.965 30.9873 14.9283 31.0359C14.8916 31.0832 14.8732 31.1424 14.8732 31.2134C14.8732 31.3164 14.9105 31.3951 14.9851 31.4496C15.0608 31.5028 15.1567 31.5295 15.2727 31.5295ZM18.9277 30.8388V29.2727H19.6841V32H18.9579V31.5046H18.9295C18.868 31.6644 18.7656 31.7929 18.6223 31.8899C18.4803 31.987 18.3069 32.0355 18.1021 32.0355C17.9198 32.0355 17.7594 31.9941 17.6209 31.9112C17.4824 31.8284 17.3741 31.7106 17.296 31.5579C17.219 31.4052 17.18 31.2223 17.1788 31.0092V29.2727H17.9352V30.8743C17.9364 31.0353 17.9796 31.1625 18.0648 31.256C18.15 31.3496 18.2643 31.3963 18.4075 31.3963C18.4986 31.3963 18.5839 31.3756 18.6632 31.3342C18.7425 31.2915 18.8064 31.2288 18.8549 31.146C18.9047 31.0631 18.9289 30.9607 18.9277 30.8388ZM20.2892 32V29.2727H21.0225V29.7486H21.0509C21.1006 29.5793 21.184 29.4515 21.3012 29.3651C21.4184 29.2775 21.5534 29.2337 21.7061 29.2337C21.7439 29.2337 21.7848 29.236 21.8286 29.2408C21.8724 29.2455 21.9108 29.252 21.944 29.2603V29.9315C21.9085 29.9208 21.8593 29.9113 21.7966 29.9031C21.7339 29.8948 21.6765 29.8906 21.6244 29.8906C21.5131 29.8906 21.4137 29.9149 21.3261 29.9634C21.2397 30.0108 21.171 30.0771 21.1201 30.1623C21.0704 30.2475 21.0455 30.3458 21.0455 30.457V32H20.2892ZM23.0346 32.0515C22.8606 32.0515 22.7056 32.0213 22.5694 31.9609C22.4333 31.8994 22.3256 31.8088 22.2463 31.6893C22.1681 31.5685 22.1291 31.4182 22.1291 31.2383C22.1291 31.0868 22.1569 30.9595 22.2125 30.8565C22.2682 30.7536 22.3439 30.6707 22.4398 30.608C22.5357 30.5452 22.6446 30.4979 22.7665 30.4659C22.8896 30.4339 23.0186 30.4115 23.1536 30.3984C23.3122 30.3819 23.44 30.3665 23.5371 30.3523C23.6342 30.3369 23.7046 30.3144 23.7484 30.2848C23.7922 30.2552 23.8141 30.2114 23.8141 30.1534V30.1428C23.8141 30.0303 23.7786 29.9433 23.7076 29.8817C23.6377 29.8202 23.5383 29.7894 23.4093 29.7894C23.2731 29.7894 23.1648 29.8196 23.0843 29.88C23.0038 29.9392 22.9506 30.0137 22.9245 30.1037L22.225 30.0469C22.2605 29.8812 22.3303 29.7379 22.4345 29.6172C22.5386 29.4953 22.673 29.4018 22.8375 29.3366C23.0033 29.2704 23.195 29.2372 23.4128 29.2372C23.5643 29.2372 23.7093 29.255 23.8478 29.2905C23.9875 29.326 24.1112 29.381 24.2189 29.4556C24.3278 29.5302 24.4136 29.6261 24.4764 29.7433C24.5391 29.8593 24.5705 29.9983 24.5705 30.1605V32H23.8532V31.6218H23.8319C23.7881 31.707 23.7295 31.7822 23.6561 31.8473C23.5827 31.9112 23.4945 31.9615 23.3915 31.9982C23.2885 32.0337 23.1696 32.0515 23.0346 32.0515ZM23.2512 31.5295C23.3625 31.5295 23.4608 31.5076 23.546 31.4638C23.6312 31.4188 23.6981 31.3584 23.7466 31.2827C23.7952 31.2069 23.8194 31.1211 23.8194 31.0252V30.7358C23.7958 30.7512 23.7632 30.7654 23.7218 30.7784C23.6815 30.7902 23.6359 30.8015 23.585 30.8121C23.5342 30.8216 23.4833 30.8305 23.4324 30.8388C23.3815 30.8459 23.3353 30.8524 23.2939 30.8583C23.2051 30.8713 23.1275 30.892 23.0613 30.9205C22.995 30.9489 22.9435 30.9873 22.9068 31.0359C22.8701 31.0832 22.8517 31.1424 22.8517 31.2134C22.8517 31.3164 22.889 31.3951 22.9636 31.4496C23.0394 31.5028 23.1352 31.5295 23.2512 31.5295ZM25.9137 30.4233V32H25.1573V29.2727H25.8782V29.7539H25.9102C25.9705 29.5953 26.0717 29.4698 26.2138 29.3775C26.3558 29.284 26.5281 29.2372 26.7305 29.2372C26.9199 29.2372 27.085 29.2786 27.2259 29.3615C27.3667 29.4444 27.4762 29.5627 27.5543 29.7166C27.6325 29.8693 27.6715 30.0516 27.6715 30.2635V32H26.9151V30.3984C26.9163 30.2315 26.8737 30.1013 26.7873 30.0078C26.7009 29.9131 26.5819 29.8658 26.4304 29.8658C26.3286 29.8658 26.2386 29.8877 26.1605 29.9315C26.0836 29.9753 26.0232 30.0392 25.9794 30.1232C25.9368 30.2061 25.9149 30.3061 25.9137 30.4233ZM29.7183 29.2727V29.8409H28.0759V29.2727H29.7183ZM28.4488 28.6193H29.2052V31.1619C29.2052 31.2318 29.2158 31.2862 29.2371 31.3253C29.2584 31.3632 29.288 31.3898 29.3259 31.4052C29.365 31.4206 29.4099 31.4283 29.4608 31.4283C29.4964 31.4283 29.5319 31.4253 29.5674 31.4194C29.6029 31.4123 29.6301 31.407 29.6491 31.4034L29.768 31.9663C29.7301 31.9781 29.6769 31.9917 29.6082 32.0071C29.5396 32.0237 29.4561 32.0337 29.3579 32.0373C29.1756 32.0444 29.0158 32.0201 28.8785 31.9645C28.7423 31.9089 28.6364 31.8224 28.5606 31.7053C28.4849 31.5881 28.4476 31.4401 28.4488 31.2614V28.6193ZM31.4246 32.0533C31.1441 32.0533 30.9026 31.9964 30.7002 31.8828C30.499 31.768 30.3439 31.6058 30.235 31.3963C30.1261 31.1856 30.0716 30.9364 30.0716 30.6488C30.0716 30.3683 30.1261 30.122 30.235 29.9102C30.3439 29.6983 30.4972 29.5331 30.6949 29.4148C30.8937 29.2964 31.1269 29.2372 31.3944 29.2372C31.5744 29.2372 31.7419 29.2662 31.8969 29.3242C32.0532 29.381 32.1893 29.4669 32.3053 29.5817C32.4225 29.6965 32.5136 29.8409 32.5787 30.0149C32.6439 30.1877 32.6764 30.3902 32.6764 30.6222V30.8299H30.3735V30.3612H31.9644C31.9644 30.2522 31.9407 30.1558 31.8934 30.0717C31.846 29.9877 31.7803 29.922 31.6963 29.8746C31.6134 29.8261 31.517 29.8018 31.4069 29.8018C31.2921 29.8018 31.1903 29.8285 31.1015 29.8817C31.0139 29.9338 30.9452 30.0043 30.8955 30.093C30.8458 30.1806 30.8203 30.2783 30.8192 30.386V30.8317C30.8192 30.9666 30.844 31.0832 30.8937 31.1815C30.9446 31.2797 31.0162 31.3555 31.1086 31.4087C31.2009 31.462 31.3104 31.4886 31.4371 31.4886C31.5211 31.4886 31.598 31.4768 31.6679 31.4531C31.7377 31.4295 31.7975 31.3939 31.8472 31.3466C31.8969 31.2992 31.9348 31.2412 31.9608 31.1726L32.6604 31.2188C32.6249 31.3868 32.5521 31.5336 32.442 31.6591C32.3331 31.7834 32.1923 31.8804 32.0194 31.9503C31.8478 32.0189 31.6495 32.0533 31.4246 32.0533Z" fill="url(#paint1_linear_1_56)"/>
<path d="M9.83523 22.1818H11.0511V26.2386C11.0511 26.6136 10.9669 26.9394 10.7983 27.2159C10.6316 27.4924 10.3996 27.7055 10.1023 27.8551C9.80492 28.0047 9.45928 28.0795 9.06534 28.0795C8.71496 28.0795 8.39678 28.018 8.1108 27.8949C7.8267 27.7699 7.60133 27.5805 7.43466 27.3267C7.26799 27.071 7.18561 26.75 7.1875 26.3636H8.41193C8.41572 26.517 8.44697 26.6487 8.50568 26.7585C8.56629 26.8665 8.64867 26.9498 8.75284 27.0085C8.8589 27.0653 8.9839 27.0938 9.12784 27.0938C9.27936 27.0938 9.4072 27.0616 9.51136 26.9972C9.61742 26.9309 9.69792 26.8343 9.75284 26.7074C9.80777 26.5805 9.83523 26.4242 9.83523 26.2386V22.1818ZM17.4148 25.0909C17.4148 25.7254 17.2945 26.2652 17.054 26.7102C16.8153 27.1553 16.4896 27.4953 16.0767 27.7301C15.6657 27.9631 15.2036 28.0795 14.6903 28.0795C14.1733 28.0795 13.7093 27.9621 13.2983 27.7273C12.8873 27.4924 12.5625 27.1525 12.3239 26.7074C12.0852 26.2623 11.9659 25.7235 11.9659 25.0909C11.9659 24.4564 12.0852 23.9167 12.3239 23.4716C12.5625 23.0265 12.8873 22.6875 13.2983 22.4545C13.7093 22.2197 14.1733 22.1023 14.6903 22.1023C15.2036 22.1023 15.6657 22.2197 16.0767 22.4545C16.4896 22.6875 16.8153 23.0265 17.054 23.4716C17.2945 23.9167 17.4148 24.4564 17.4148 25.0909ZM16.1676 25.0909C16.1676 24.6799 16.1061 24.3333 15.983 24.0511C15.8617 23.7689 15.6903 23.5549 15.4688 23.4091C15.2472 23.2633 14.9877 23.1903 14.6903 23.1903C14.393 23.1903 14.1335 23.2633 13.9119 23.4091C13.6903 23.5549 13.518 23.7689 13.3949 24.0511C13.2737 24.3333 13.2131 24.6799 13.2131 25.0909C13.2131 25.5019 13.2737 25.8485 13.3949 26.1307C13.518 26.4129 13.6903 26.6269 13.9119 26.7727C14.1335 26.9186 14.393 26.9915 14.6903 26.9915C14.9877 26.9915 15.2472 26.9186 15.4688 26.7727C15.6903 26.6269 15.8617 26.4129 15.983 26.1307C16.1061 25.8485 16.1676 25.5019 16.1676 25.0909ZM21.4822 23.8551C21.4595 23.6259 21.362 23.4479 21.1896 23.321C21.0173 23.1941 20.7834 23.1307 20.4879 23.1307C20.2872 23.1307 20.1177 23.1591 19.9794 23.2159C19.8411 23.2708 19.7351 23.3475 19.6612 23.446C19.5893 23.5445 19.5533 23.6562 19.5533 23.7812C19.5495 23.8854 19.5713 23.9763 19.6186 24.054C19.6679 24.1316 19.7351 24.1989 19.8203 24.2557C19.9055 24.3106 20.004 24.3589 20.1158 24.4006C20.2275 24.4403 20.3468 24.4744 20.4737 24.5028L20.9964 24.6278C21.2502 24.6847 21.4832 24.7604 21.6953 24.8551C21.9074 24.9498 22.0911 25.0663 22.2464 25.2045C22.4018 25.3428 22.522 25.5057 22.6072 25.6932C22.6944 25.8807 22.7389 26.0956 22.7408 26.3381C22.7389 26.6941 22.648 27.0028 22.468 27.2642C22.29 27.5237 22.0324 27.7254 21.6953 27.8693C21.3601 28.0114 20.9557 28.0824 20.4822 28.0824C20.0125 28.0824 19.6035 28.0104 19.255 27.8665C18.9084 27.7225 18.6375 27.5095 18.4425 27.2273C18.2493 26.9432 18.148 26.5919 18.1385 26.1733H19.3288C19.3421 26.3684 19.398 26.5312 19.4964 26.6619C19.5968 26.7907 19.7304 26.8883 19.897 26.9545C20.0656 27.0189 20.2559 27.0511 20.468 27.0511C20.6764 27.0511 20.8572 27.0208 21.0107 26.9602C21.166 26.8996 21.2862 26.8153 21.3714 26.7074C21.4567 26.5994 21.4993 26.4754 21.4993 26.3352C21.4993 26.2045 21.4605 26.0947 21.3828 26.0057C21.3071 25.9167 21.1953 25.8409 21.0476 25.7784C20.9018 25.7159 20.7228 25.6591 20.5107 25.608L19.8771 25.4489C19.3866 25.3295 18.9993 25.143 18.7152 24.8892C18.4311 24.6354 18.29 24.2936 18.2919 23.8636C18.29 23.5114 18.3838 23.2036 18.5732 22.9403C18.7644 22.6771 19.0268 22.4716 19.3601 22.3239C19.6934 22.1761 20.0722 22.1023 20.4964 22.1023C20.9283 22.1023 21.3052 22.1761 21.6271 22.3239C21.951 22.4716 22.2029 22.6771 22.3828 22.9403C22.5627 23.2036 22.6555 23.5085 22.6612 23.8551H21.4822ZM23.2273 22.1818H24.6051L25.9318 24.6875H25.9886L27.3153 22.1818H28.6932L26.571 25.9432V28H25.3494V25.9432L23.2273 22.1818Z" fill="#F00400"/>
<defs>
<linearGradient id="paint0_linear_1_56" x1="18" y1="2.625" x2="18" y2="21.875" gradientUnits="userSpaceOnUse">
<stop stop-color="#F00400"/>
<stop offset="1" stop-color="#B17609"/>
</linearGradient>
<linearGradient id="paint1_linear_1_56" x1="3" y1="28" x2="35" y2="28" gradientUnits="userSpaceOnUse">
<stop stop-color="#B17609"/>
<stop offset="1" stop-color="#F00400"/>
</linearGradient>
</defs>
</svg>
